<svg width="302" height="202" viewBox="0 0 302 202" fill="none" xmlns="http://www.w3.org/2000/svg">
<line x1="1.5" y1="200.5" x2="300.5" y2="200.5" stroke="#0F1100" stroke-width="3" stroke-linecap="round"/>
<path d="M77.1057 160.448H101.478L104.497 185.683C103.85 185.611 100.227 185.424 90.9093 185.252C81.5918 185.079 76.3867 190.212 74.9488 192.801C73.5109 195.173 68.996 198.797 62.4393 194.31C55.8825 189.824 69.4849 169.866 77.1057 160.448Z" fill="#383232"/>
<path d="M226.566 97.6844L173.723 97.0373L159.488 111.919L202.625 157.644C215.063 155.487 240.758 146.213 244.036 126.37C247.314 106.527 233.755 98.9785 226.566 97.6844Z" fill="#F9EFE3"/>
<path d="M216.652 122.505C207.602 126.406 203.36 131.397 201.757 134.732C201.169 135.955 199.052 136.786 197.959 137.59C196.881 138.383 196.05 138.915 194.714 138.965C170.62 139.87 172.338 171.39 176.965 190.386C177.486 192.528 179.421 193.995 181.625 194.026L222.775 194.62H240.245H248.871C251.618 194.62 253.849 192.415 253.886 189.669C254.149 169.992 255.181 138.141 257.715 137.033C261.166 135.523 264.186 115.464 261.813 109.425C261.322 108.176 260.753 107.361 260.157 106.864C257.974 105.045 253.912 105.896 251.357 104.651C246.993 102.525 243.06 103.694 240.387 105.479C238.694 106.609 236.533 107.18 234.547 107.626C229.028 108.865 222.495 115.951 218.904 120.734C218.321 121.511 217.543 122.121 216.652 122.505Z" fill="#7B7484"/>
<path d="M98.2344 184.31V161.618C98.2344 156.684 102.235 152.683 107.169 152.683C117.11 152.683 121.786 134.154 114.421 127.478C110.778 124.176 107.456 120.631 104.705 116.88C92.352 100.035 103.777 86.2359 112.493 80.3356C113.729 79.4991 115.186 79.0435 116.667 79.2303C125.719 80.3724 149.8 90.3138 190.762 124.213C234.44 160.361 209.692 184.957 190.387 193.555C189.219 194.076 187.948 194.31 186.67 194.31H108.234C102.712 194.31 98.2344 189.833 98.2344 184.31Z" fill="#3777E3"/>
<path d="M154.173 46.0633C171.255 28.9813 189.761 37.9393 196.878 44.5536C201 49.5 196.422 57.5706 208.5 55.5C218.728 53.7467 223.35 74.0243 223.348 89.7518C223.347 94.4069 219.619 98.0249 214.989 98.5054L202.269 99.8254C197.706 100.299 193.569 104.094 189.57 106.341C189.121 106.594 188.68 106.815 188.266 107.004C187.413 107.394 186.481 107.557 185.545 107.604L141.267 109.828C140.243 109.879 139.221 109.777 138.234 109.501C132.035 107.767 121.104 104.126 117.291 100.631C95.7229 81.8666 128.722 65.4747 154.173 46.0633Z" fill="#FBF3E1"/>
<path d="M255.263 136.985L228.756 127.698C227.924 127.406 227.003 127.54 226.287 128.055C224.507 129.336 224.919 132.094 226.996 132.799L253.592 141.828C255.253 142.392 256.977 141.157 256.977 139.403C256.977 138.314 256.29 137.345 255.263 136.985Z" fill="#F57F6D"/>
<path d="M230.617 29.8563C234.211 46.1166 220.857 47.329 213.731 45.9027C212.75 46.2083 210.478 48.3173 209.239 54.308C207.689 61.7963 200.098 59.1983 199.014 54.308C198.146 50.3957 197.31 46.2593 197 44.6801L199.479 40.8596C205.799 40.7373 207.483 36.6315 207.534 34.5938C205.624 33.0147 202.267 29.245 204.126 26.7999C206.45 23.7434 211.252 29.8563 211.872 29.8563C212.492 29.8563 217.604 25.2716 221.477 18.089C225.35 10.9063 230.617 24.3547 231.702 26.7999C232.569 28.756 231.34 29.6525 230.617 29.8563Z" fill="#FF7848"/>
<path d="M222.859 16.6451C221.221 25.21 213.958 29.0846 211.49 29.8087C210.065 29.8087 209.364 27.9946 208.069 26.7109C206.579 25.2348 203.599 25.9363 203.386 28.0224C203.176 30.0801 205.616 32.0277 207.553 33.5325C207.301 40.6079 198.471 45.9454 195.898 44.8593C193.483 40.7217 187.3 24.2538 191.332 15.0683C196.371 3.58638 216.087 7.80092 219.551 8.2664C223.016 8.73189 225.221 6.09415 229.789 7.33544C240.656 10.5938 234.513 17.2657 231.836 18.9725C230.072 21.8275 228.763 21.4816 228.815 20.0335C224.153 20.7782 223.226 17.4726 222.859 16.6451Z" fill="#383232"/>
<path d="M219 36C219.058 37.6574 220.54 40.745 226 39.8358" stroke="black" stroke-width="2" stroke-linecap="round"/>
<path d="M161.095 93.5712L141.846 106.784C139.737 108.232 139.405 110.844 141.704 111.967C147.646 114.871 159.418 117.835 168.053 119.924C170.541 120.525 172.763 122.966 174.504 124.842C175.85 126.292 177.633 127.77 179.198 128.937C180.307 129.764 180.812 131.641 182.046 132.265C183.056 132.775 183.982 133.289 184.991 133.801C185.027 133.819 185.063 133.836 185.099 133.853C186.543 134.528 188.784 135.707 190.034 134.719C190.641 134.239 190.732 133.503 190.686 132.731C190.468 129.072 190.177 121.976 190.331 115.37C190.488 108.625 175.681 98.6344 166.236 93.3092C164.618 92.3966 162.627 92.5195 161.095 93.5712Z" fill="#FF7848"/>
<path d="M163.158 1.67691C192.987 -4.24045 198.042 6.91623 196.841 13.2342C191.723 17.1894 179.357 23.4972 170.834 17.0867C160.181 9.07364 147.334 42.2047 124.305 46.5194C101.275 50.8341 153.758 24.3293 106.915 37.2735C60.072 50.2177 97.045 3.98841 112.555 18.9359C128.065 33.8834 125.871 9.0736 163.158 1.67691Z" fill="#383232"/>
<path fill-rule="evenodd" clip-rule="evenodd" d="M244.432 135.648C244.691 135.092 244.451 134.432 243.896 134.173C243.34 133.914 242.679 134.154 242.42 134.709L240.949 137.864C240.771 138.245 240.359 138.448 239.939 138.448C237.676 138.448 235.841 140.283 235.841 142.546C235.841 144.81 237.676 146.644 239.939 146.644C242.202 146.644 244.037 144.81 244.037 142.546C244.037 142.136 243.977 141.74 243.864 141.367C243.476 140.072 243.041 138.631 243.613 137.405L244.432 135.648Z" fill="#F1FB20"/>
<ellipse cx="231.096" cy="120.762" rx="3.01956" ry="2.15683" fill="#423D53"/>
<circle cx="242.958" cy="113.645" r="1.50978" fill="#423D53"/>
<circle cx="251.154" cy="113.645" r="1.50978" fill="#423D53"/>
<circle cx="193" cy="12" r="5" fill="#E5827C"/>
</svg>
