<svg width="302" height="284" viewBox="0 0 302 284" fill="none" xmlns="http://www.w3.org/2000/svg">
<line x1="1.5" y1="282.5" x2="300.5" y2="282.5" stroke="black" stroke-width="3" stroke-linecap="round"/>
<rect x="156" y="200" width="41" height="42" rx="5" fill="#FFCFC1"/>
<path d="M151.168 26.7533L144.101 33.652L153.187 39.7093L154.365 28.7724L151.168 26.7533Z" fill="#FDCEBE"/>
<ellipse cx="152.851" cy="23.0517" rx="7.06692" ry="7.5717" fill="#FDCEBE"/>
<path d="M152.911 19.35C150.892 18.2731 149.265 18.9013 148.704 19.35C148.199 20.5278 148.199 22.8834 148.704 23.3882C149.607 24.2912 149.882 24.566 149.714 24.9025C152.125 24.6221 157.386 24.7006 159.136 27.2582C160 32 161 36.5 152.911 34.6616C147.229 33.3704 145.002 29.8382 145.339 27.5947C139.786 20.023 143.32 16.153 146.349 13.9656C149.377 11.7783 162.67 11.1052 161.828 16.4895C160.987 21.8739 155.435 20.6961 152.911 19.35Z" fill="#172639"/>
<path d="M106.243 60.9396L92 33.5C98.2256 27.9474 120.377 25.7733 123.91 26.4463C169.812 37.4842 175.005 51.5732 171.864 57.2379L157.73 82.9817L152.5 78.5L104.897 74.2322C105.301 64.8096 117.741 56.3966 123.91 53.3679L106.243 60.9396Z" fill="#F8F0E5"/>
<path d="M167.153 102.975L152.851 78.7457C154.365 77.7922 159.346 72.5201 167.153 59.0593C174.96 45.5984 188.466 47.9541 194.243 50.8145C194.243 47.5054 198.786 43.3233 205.853 47.1128C215.141 52.0933 210.508 58.3862 207.031 60.9101C211.798 61.4149 220.862 63.7032 218.977 68.8183C217.093 73.9334 205.292 72.5201 199.627 71.174C201.141 73.5296 213.761 78.7457 210.059 83.6252C206.021 86.4856 193.738 83.457 186.335 77.5678C180.277 76.6256 171.023 94.1134 167.153 102.975Z" fill="#FDCEBE"/>
<path d="M73.4761 239.564L76.1533 208.995C76.3682 206.54 78.3393 204.608 80.7977 204.442L111.183 202.392C114.241 202.186 116.763 204.755 116.501 207.809L113.698 240.428C113.476 243.014 111.312 245 108.717 245H78.457C75.5234 245 73.2202 242.486 73.4761 239.564Z" fill="#FFCFC1"/>
<path d="M149.863 73H115.174C110.756 73 106.862 75.8988 105.595 80.1307L68.0157 205.593C66.0473 212.165 71.1298 218.722 77.9849 218.455L112.82 217.096C117.301 216.921 121.117 213.785 122.157 209.423L132.569 165.756C134.27 158.623 143.67 156.968 147.704 163.092C148.679 164.573 149.159 166.325 149.075 168.096L147.465 201.91C147.187 207.745 151.947 212.574 157.785 212.381L193.332 211.2C198.723 211.022 203 206.6 203 201.206V159.604C203 158.165 202.689 156.742 202.089 155.434L197.1 144.562L158.515 77.9857C156.726 74.8997 153.43 73 149.863 73Z" fill="#EF9D78"/>
<path d="M194.258 234.554H164.533C159.011 234.554 154.533 239.032 154.533 244.554V261.067C154.533 266.59 159.011 271.067 164.533 271.067H230.772C235.13 271.067 238.663 267.534 238.663 263.175C238.663 260.354 237.158 257.747 234.714 256.338L199.254 235.891C197.735 235.016 196.012 234.554 194.258 234.554Z" fill="#C56518"/>
<rect x="154.197" y="267.533" width="84.8031" height="8.413" fill="#FFD0C0"/>
<path d="M110.972 233.881H79.9591C75.2632 233.881 71.1999 237.149 70.1921 241.735L66.342 259.257C64.9711 265.496 69.7212 271.403 76.109 271.403H147.288C151.94 271.403 155.711 267.632 155.711 262.98C155.711 259.967 154.103 257.184 151.492 255.681L115.963 235.216C114.445 234.342 112.724 233.881 110.972 233.881Z" fill="#C56518"/>
<path d="M150.88 267.197H68.3191C65.7055 267.197 63.5385 269.221 63.3605 271.829C63.1651 274.689 65.424 277.121 68.2912 277.137L150.851 277.601C153.624 277.616 155.88 275.373 155.88 272.601V272.197C155.88 269.436 153.641 267.197 150.88 267.197Z" fill="#FFD0C0"/>
<path d="M90.4191 92.543C94.4574 87.8317 93.56 81.8305 92.6065 79.4187L103.039 83.6252C103.431 88.0561 102.197 97.7591 94.1209 101.124C84.0253 105.331 85.3713 98.4321 90.4191 92.543Z" fill="#E3AB98"/>
<path d="M117.136 95.0669C122.327 95.1935 107.385 57.9233 97.8434 35.9439C96.8513 33.6587 94.307 32.4489 92.0098 33.4128C85.9557 35.953 80.7819 39.8575 78.4363 42.065C68.1724 51.4876 90.8875 79.9235 93.2433 84.4665C95.5991 89.0095 93.5799 96.7495 93.2433 100.115C92.9068 103.48 93.5799 105.836 96.4403 107.35C97.7236 108.029 99.4197 103.096 100.929 97.1371C102.083 92.584 109.044 91.3893 113.093 93.7694C114.412 94.5448 115.778 95.0338 117.136 95.0669Z" fill="#FDCEBE"/>
<ellipse cx="147.466" cy="22.042" rx="2.01912" ry="2.18738" fill="#FDCEBE"/>
<circle cx="190.036" cy="22.0421" r="22.0421" fill="#3777E3"/>
<circle cx="190.036" cy="22.042" r="19.0134" fill="#FDCEBE"/>
<path d="M192.56 44.0841L197.608 80.0918" stroke="black" stroke-width="5" stroke-linecap="round"/>
<circle cx="182.465" cy="19.1816" r="2.69216" fill="#172639"/>
<circle cx="195.252" cy="18.1721" r="2.69216" fill="#172639"/>
<path d="M190.878 12.9973C192.447 11.0972 196.205 7.85149 198.689 10.0693" stroke="black" stroke-width="2" stroke-linecap="round"/>
</svg>
