<svg width="23" height="21" viewBox="0 0 23 21" fill="none" xmlns="http://www.w3.org/2000/svg">
<path d="M11.2405 0C5.01808 0 0 4.01442 0 8.88798C0 12.0514 2.08752 14.8213 5.2188 16.403L4.15898 20.3613C4.139 20.4207 4.13593 20.4843 4.15011 20.5453C4.16429 20.6063 4.19516 20.6621 4.23927 20.7065C4.30359 20.7633 4.38635 20.7946 4.47211 20.7948C4.54322 20.7891 4.61068 20.761 4.6648 20.7146L9.22524 17.6395C9.89841 17.7324 10.577 17.7807 11.2566 17.784C17.4709 17.784 22.4971 13.7696 22.4971 8.88798C22.4971 4.00639 17.4549 0 11.2405 0Z" fill="black"/>
</svg>
