<svg width="105" height="123" viewBox="0 0 105 123" fill="none" xmlns="http://www.w3.org/2000/svg">
<path fill-rule="evenodd" clip-rule="evenodd" d="M104.999 35.2981C94.7438 17.8514 74.4035 7.72482 53.3029 11.4468C26.166 16.2335 8.04755 42.1128 12.8343 69.2497C17.621 96.3866 43.5002 114.505 70.6372 109.718C85.6186 107.076 97.8514 98.0045 104.999 85.8422V35.2981ZM51.8972 37.506C56.7884 35.4565 62.2111 35.0429 67.3565 36.327C69.3001 36.8121 71.269 35.6297 71.754 33.6861C72.2391 31.7425 71.0567 29.7737 69.1131 29.2887C62.4499 27.6257 55.4276 28.1613 49.0936 30.8154C42.7596 33.4695 37.4532 38.1 33.9659 44.0163C30.4786 49.9326 28.9971 56.8177 29.7425 63.6447C30.4879 70.4718 33.4202 76.8749 38.102 81.8993C42.7839 86.9237 48.9644 90.3 55.722 91.5248C62.4795 92.7496 69.4519 91.7571 75.5992 88.6955C81.7466 85.6339 86.7397 80.6671 89.8337 74.536C92.9277 68.4048 93.9569 61.4378 92.7678 54.6739L92.7674 54.6719L92.3164 52.1151C91.9684 50.1423 90.0871 48.8252 88.1144 49.1732C86.1416 49.5211 84.8245 51.4025 85.1724 53.3752L85.6231 55.9299C86.5413 61.1531 85.7466 66.5332 83.3573 71.2678C80.9681 76.0024 77.1124 79.8378 72.3653 82.202C67.6181 84.5662 62.2339 85.3326 57.0157 84.3868C51.7974 83.441 47.0247 80.8338 43.4093 76.9539C39.7939 73.074 37.5295 68.1293 36.9539 62.8574C36.3783 57.5854 37.5223 52.2686 40.2153 47.7C42.9083 43.1313 47.0059 39.5556 51.8972 37.506ZM90.0417 26.8216C91.6833 27.9697 92.0834 30.2311 90.9353 31.8727L66.0907 67.397C65.5392 68.1856 64.6969 68.7227 63.7493 68.8901C62.8017 69.0575 61.8264 68.8414 61.0381 68.2895L50.3899 60.8346C48.7489 59.6857 48.3499 57.424 49.4988 55.783C50.6477 54.142 52.9094 53.7431 54.5504 54.8919L62.2258 60.2656L84.9906 27.7152C86.1387 26.0736 88.4001 25.6735 90.0417 26.8216Z" fill="#84D483" fill-opacity="0.4"/>
<path fill-rule="evenodd" clip-rule="evenodd" d="M105 18.7049C91.3796 4.5841 71.2082 -2.72639 50.4342 0.937971C17.2437 6.7925 -4.91656 38.4448 0.937971 71.6353C6.7925 104.826 38.4448 126.986 71.6353 121.132C84.8695 118.797 96.3499 112.361 105 103.362V97.6066C96.6525 107.652 84.8383 114.905 70.9686 117.352C39.8655 122.838 10.204 102.072 4.71765 70.9686C-0.768676 39.8655 19.9978 10.204 51.1009 4.71765C72.028 1.02628 92.3025 9.21958 105 24.4496V18.7049Z" fill="#84D483" fill-opacity="0.4"/>
</svg>
