<svg width="358" height="219" viewBox="0 0 358 219" fill="none" xmlns="http://www.w3.org/2000/svg">
<rect width="358" height="219" rx="20" fill="#F9DFDF"/>
<path d="M29.4348 19.2644H32.0948V32.8844H29.4348V19.2644ZM31.3348 24.4644H34.5548V26.6444H31.3348V24.4644ZM20.1548 35.3244H32.7548V37.4444H20.1548V35.3244ZM20.1548 31.5044H22.8148V35.7844H20.1548V31.5044ZM18.0548 20.5644H20.6948V23.2244H24.3148V20.5644H26.9548V29.9644H18.0548V20.5644ZM20.6948 25.2444V27.8844H24.3148V25.2444H20.6948ZM48.7533 19.2244H51.4133V37.8044H48.7533V19.2244ZM45.7133 23.1644H49.1933V25.3044H45.7133V23.1644ZM36.5533 31.5044H38.0133C40.7533 31.5044 43.0333 31.4444 45.6933 31.0444L45.9133 33.2044C43.1933 33.6244 40.8333 33.6844 38.0133 33.6844H36.5533V31.5044ZM36.5133 20.7844H44.7933V27.9644H39.1933V31.9844H36.5533V25.8644H42.1733V22.9044H36.5133V20.7844ZM45.6733 28.2044H49.1533V30.3444H45.6733V28.2044ZM54.3317 27.9444H71.0917V30.0644H54.3317V27.9444ZM61.3917 25.1644H64.0317V28.7644H61.3917V25.1644ZM56.3517 24.3244H69.1917V26.4244H56.3517V24.3244ZM56.3517 20.0444H69.0917V22.1244H58.9917V25.6644H56.3517V20.0444ZM62.6517 30.9844C66.6517 30.9844 69.0717 32.2044 69.0717 34.3844C69.0717 36.5644 66.6517 37.7844 62.6517 37.7844C58.6517 37.7844 56.2117 36.5644 56.2117 34.3844C56.2117 32.2044 58.6517 30.9844 62.6517 30.9844ZM62.6517 32.9844C60.1717 32.9844 58.9117 33.4444 58.9117 34.3844C58.9117 35.3444 60.1717 35.7644 62.6517 35.7644C65.1317 35.7644 66.3917 35.3444 66.3917 34.3844C66.3917 33.4444 65.1317 32.9844 62.6517 32.9844ZM79.7302 28.1444H82.3902V30.7244H79.7302V28.1444ZM72.7102 26.5844H89.4502V28.6644H72.7102V26.5844ZM74.7702 19.7844H87.3302V25.6044H74.7702V19.7844ZM84.7102 21.8444H77.3902V23.5644H84.7102V21.8444ZM74.6302 29.8244H87.4302V34.5844H77.2702V36.2244H74.6502V32.7444H84.8102V31.8044H74.6302V29.8244ZM74.6502 35.6444H87.9102V37.6444H74.6502V35.6444ZM96.0895 27.7044H112.85V29.8644H96.0895V27.7044ZM98.1095 24.3244H110.95V26.4244H98.1095V24.3244ZM98.1095 19.7444H110.85V21.8644H100.75V25.3644H98.1095V19.7444ZM104.41 30.9644C108.41 30.9644 110.83 32.1844 110.83 34.3644C110.83 36.5444 108.41 37.7644 104.41 37.7644C100.41 37.7644 97.9695 36.5444 97.9695 34.3644C97.9695 32.1844 100.41 30.9644 104.41 30.9644ZM104.41 32.9644C101.93 32.9644 100.67 33.4244 100.67 34.3644C100.67 35.3244 101.93 35.7444 104.41 35.7444C106.89 35.7444 108.15 35.3244 108.15 34.3644C108.15 33.4244 106.89 32.9644 104.41 32.9644ZM114.468 29.1644H131.248V31.2844H114.468V29.1644ZM116.528 19.6044H129.208V24.6244H119.188V26.6244H116.548V22.7444H126.588V21.6244H116.528V19.6044ZM116.548 25.8244H129.568V27.8444H116.548V25.8244ZM121.528 26.8044H124.188V30.3244H121.528V26.8044ZM116.328 32.3244H129.328V37.7044H126.668V34.4244H116.328V32.3244ZM132.866 27.7844H149.606V29.8844H132.866V27.7844ZM141.206 30.9044C145.206 30.9044 147.626 32.1644 147.626 34.3444C147.626 36.5244 145.206 37.7644 141.206 37.7644C137.206 37.7644 134.766 36.5244 134.766 34.3444C134.766 32.1644 137.206 30.9044 141.206 30.9044ZM141.206 32.9644C138.726 32.9644 137.466 33.3844 137.466 34.3444C137.466 35.2844 138.726 35.7244 141.206 35.7244C143.686 35.7244 144.946 35.2844 144.946 34.3444C144.946 33.3844 143.686 32.9644 141.206 32.9644ZM139.406 21.1444H141.766V21.6044C141.766 24.3644 139.266 26.6644 134.486 27.0844L133.566 25.0244C137.626 24.6644 139.406 23.0444 139.406 21.6044V21.1444ZM140.706 21.1444H143.066V21.6044C143.066 23.0444 144.826 24.6644 148.906 25.0244L147.986 27.0844C143.226 26.6644 140.706 24.3844 140.706 21.6044V21.1444ZM134.386 20.1044H148.106V22.2044H134.386V20.1044Z" fill="black"/>
<path d="M24.9416 61.5641H30.0456V63.2441H24.9416V61.5641ZM24.9416 58.1561H29.9816V59.8361H27.0696V62.3161H24.9416V58.1561ZM19.0696 58.1561H24.2056V59.8361H21.1976V62.3161H19.0696V58.1561ZM19.0696 61.5641H19.9976C21.6776 61.5641 22.8776 61.5321 24.2856 61.2441L24.4776 62.9241C23.0056 63.2121 21.7256 63.2441 19.9976 63.2441H19.0696V61.5641ZM17.8056 64.1401H31.2136V65.8201H17.8056V64.1401ZM23.4536 65.0521H25.5816V67.8681H23.4536V65.0521ZM24.4936 66.9561C27.6936 66.9561 29.6296 67.9321 29.6296 69.6761C29.6296 71.4041 27.6936 72.3961 24.4936 72.3961C21.2776 72.3961 19.3416 71.4041 19.3416 69.6761C19.3416 67.9321 21.2776 66.9561 24.4936 66.9561ZM24.4936 68.5721C22.5096 68.5721 21.5016 68.9241 21.5016 69.6761C21.5016 70.4281 22.5096 70.7801 24.4936 70.7801C26.4776 70.7801 27.4856 70.4281 27.4856 69.6761C27.4856 68.9241 26.4776 68.5721 24.4936 68.5721ZM35.8684 59.9001H37.5484V61.5641C37.5484 64.9081 36.1404 68.3161 33.4204 69.5961L32.2204 67.9161C34.6684 66.7641 35.8684 63.9961 35.8684 61.5641V59.9001ZM36.3164 59.9001H37.9964V61.5641C37.9964 63.8041 39.1484 66.4281 41.5804 67.5481L40.4124 69.2281C37.6924 67.9641 36.3164 64.7161 36.3164 61.5641V59.9001ZM32.7964 58.9881H40.9244V60.7321H32.7964V58.9881ZM42.0124 57.5641H44.1564V72.3801H42.0124V57.5641ZM43.6764 63.2121H46.3004V64.9721H43.6764V63.2121ZM20.4936 124.46H22.1576V126.172C22.1576 128.684 21.1496 131.196 18.7336 132.22L17.6136 130.572C19.6776 129.66 20.4936 127.836 20.4936 126.172V124.46ZM20.8776 124.46H22.5416V126.172C22.5416 127.756 23.3416 129.356 25.2936 130.124L24.1576 131.74C21.8536 130.828 20.8776 128.588 20.8776 126.172V124.46ZM28.4296 123.58H30.4456V132.62H28.4296V123.58ZM26.6536 127.164H29.0056V128.876H26.6536V127.164ZM25.2936 123.852H27.2776V132.156H25.2936V123.852ZM25.4216 132.828C28.5256 132.828 30.5256 133.868 30.5256 135.612C30.5256 137.34 28.5256 138.38 25.4216 138.38C22.3016 138.38 20.3336 137.34 20.3336 135.612C20.3336 133.868 22.3016 132.828 25.4216 132.828ZM25.4216 134.428C23.5176 134.428 22.4456 134.828 22.4456 135.612C22.4456 136.396 23.5176 136.78 25.4216 136.78C27.3256 136.78 28.3816 136.396 28.3816 135.612C28.3816 134.828 27.3256 134.428 25.4216 134.428ZM42.8124 123.564H44.9404V134.46H42.8124V123.564ZM39.2284 125.212H43.5324V126.876H39.2284V125.212ZM35.1484 136.428H45.2764V138.124H35.1484V136.428ZM35.1484 133.484H37.2924V137.292H35.1484V133.484ZM33.3564 124.508H35.4684V131.468H33.3564V124.508ZM33.3564 130.828H34.5404C36.6844 130.828 38.5884 130.732 40.7004 130.364L40.8924 132.076C38.7164 132.476 36.7644 132.556 34.5404 132.556H33.3564V130.828ZM39.2284 127.964H43.5324V129.644H39.2284V127.964ZM50.8431 129.58H52.9711V132.156H50.8431V129.58ZM57.6111 123.564H59.7391V132.14H57.6111V123.564ZM47.4991 130.236L47.2751 128.764C50.1231 128.764 53.6271 128.764 56.7471 128.46L56.8591 129.772C53.6431 130.22 50.2671 130.252 47.4991 130.236ZM49.3711 132.588H59.7391V136.06H51.4991V137.228H49.4031V134.732H57.6271V134.028H49.3711V132.588ZM49.4031 136.828H60.0751V138.284H49.4031V136.828ZM54.9871 130.428H58.2671V131.692H54.9871V130.428ZM51.9791 123.772C54.1871 123.772 55.6751 124.652 55.6751 125.996C55.6751 127.356 54.1871 128.22 51.9791 128.22C49.7551 128.22 48.2671 127.356 48.2671 125.996C48.2671 124.652 49.7551 123.772 51.9791 123.772ZM51.9791 125.164C50.9071 125.164 50.2511 125.452 50.2511 125.996C50.2511 126.54 50.9071 126.812 51.9791 126.812C53.0351 126.812 53.6911 126.54 53.6911 125.996C53.6911 125.452 53.0351 125.164 51.9791 125.164ZM66.1539 123.996C68.4099 123.996 70.1059 125.404 70.1059 127.388C70.1059 129.356 68.4099 130.764 66.1539 130.764C63.8979 130.764 62.2019 129.356 62.2019 127.388C62.2019 125.404 63.8979 123.996 66.1539 123.996ZM66.1539 125.724C65.0659 125.724 64.2499 126.332 64.2499 127.388C64.2499 128.444 65.0659 129.052 66.1539 129.052C67.2419 129.052 68.0419 128.444 68.0419 127.388C68.0419 126.332 67.2419 125.724 66.1539 125.724ZM72.1539 123.564H74.2979V130.972H72.1539V123.564ZM64.4099 131.58H74.2979V135.644H66.5219V137.436H64.4419V134.108H72.1859V133.228H64.4099V131.58ZM64.4419 136.572H74.6659V138.22H64.4419V136.572ZM82.3493 135.558C82.0046 135.558 81.7091 135.437 81.4629 135.195C81.2167 134.948 81.0955 134.653 81.0993 134.308C81.0955 133.967 81.2167 133.676 81.4629 133.433C81.7091 133.191 82.0046 133.07 82.3493 133.07C82.6826 133.07 82.9724 133.191 83.2186 133.433C83.4686 133.676 83.5955 133.967 83.5993 134.308C83.5955 134.539 83.5349 134.75 83.4174 134.939C83.3038 135.128 83.1523 135.28 82.9629 135.394C82.7773 135.503 82.5727 135.558 82.3493 135.558ZM82.3493 129.791C82.0046 129.791 81.7091 129.67 81.4629 129.428C81.2167 129.181 81.0955 128.886 81.0993 128.541C81.0955 128.2 81.2167 127.909 81.4629 127.666C81.7091 127.42 82.0046 127.297 82.3493 127.297C82.6826 127.297 82.9724 127.42 83.2186 127.666C83.4686 127.909 83.5955 128.2 83.5993 128.541C83.5955 128.769 83.5349 128.977 83.4174 129.166C83.3038 129.356 83.1523 129.507 82.9629 129.621C82.7773 129.734 82.5727 129.791 82.3493 129.791ZM93.97 137.178C93.0344 137.178 92.2314 136.941 91.5609 136.467C90.8942 135.99 90.381 135.303 90.0211 134.405C89.6651 133.503 89.487 132.418 89.487 131.149C89.4908 129.88 89.6708 128.801 90.0268 127.911C90.3867 127.017 90.8999 126.335 91.5666 125.865C92.237 125.395 93.0382 125.161 93.97 125.161C94.9018 125.161 95.7029 125.395 96.3734 125.865C97.0439 126.335 97.5571 127.017 97.9132 127.911C98.273 128.805 98.4529 129.884 98.4529 131.149C98.4529 132.422 98.273 133.509 97.9132 134.411C97.5571 135.308 97.0439 135.994 96.3734 136.467C95.7067 136.941 94.9056 137.178 93.97 137.178ZM93.97 135.399C94.6973 135.399 95.2711 135.041 95.6916 134.325C96.1158 133.606 96.3279 132.547 96.3279 131.149C96.3279 130.225 96.2314 129.448 96.0382 128.82C95.845 128.191 95.5723 127.717 95.22 127.399C94.8677 127.077 94.4511 126.916 93.97 126.916C93.2465 126.916 92.6745 127.276 92.2541 127.996C91.8336 128.712 91.6215 129.763 91.6177 131.149C91.6139 132.077 91.7067 132.858 91.8961 133.49C92.0893 134.123 92.362 134.6 92.7143 134.922C93.0666 135.24 93.4851 135.399 93.97 135.399ZM104.642 137.178C103.706 137.178 102.903 136.941 102.233 136.467C101.566 135.99 101.053 135.303 100.693 134.405C100.337 133.503 100.159 132.418 100.159 131.149C100.163 129.88 100.343 128.801 100.699 127.911C101.059 127.017 101.572 126.335 102.238 125.865C102.909 125.395 103.71 125.161 104.642 125.161C105.574 125.161 106.375 125.395 107.045 125.865C107.716 126.335 108.229 127.017 108.585 127.911C108.945 128.805 109.125 129.884 109.125 131.149C109.125 132.422 108.945 133.509 108.585 134.411C108.229 135.308 107.716 135.994 107.045 136.467C106.379 136.941 105.577 137.178 104.642 137.178ZM104.642 135.399C105.369 135.399 105.943 135.041 106.363 134.325C106.788 133.606 107 132.547 107 131.149C107 130.225 106.903 129.448 106.71 128.82C106.517 128.191 106.244 127.717 105.892 127.399C105.54 127.077 105.123 126.916 104.642 126.916C103.918 126.916 103.346 127.276 102.926 127.996C102.506 128.712 102.293 129.763 102.29 131.149C102.286 132.077 102.379 132.858 102.568 133.49C102.761 134.123 103.034 134.6 103.386 134.922C103.738 135.24 104.157 135.399 104.642 135.399ZM115.314 137.178C114.378 137.178 113.575 136.941 112.905 136.467C112.238 135.99 111.725 135.303 111.365 134.405C111.009 133.503 110.831 132.418 110.831 131.149C110.835 129.88 111.015 128.801 111.371 127.911C111.73 127.017 112.244 126.335 112.91 125.865C113.581 125.395 114.382 125.161 115.314 125.161C116.246 125.161 117.047 125.395 117.717 125.865C118.388 126.335 118.901 127.017 119.257 127.911C119.617 128.805 119.797 129.884 119.797 131.149C119.797 132.422 119.617 133.509 119.257 134.411C118.901 135.308 118.388 135.994 117.717 136.467C117.05 136.941 116.249 137.178 115.314 137.178ZM115.314 135.399C116.041 135.399 116.615 135.041 117.035 134.325C117.46 133.606 117.672 132.547 117.672 131.149C117.672 130.225 117.575 129.448 117.382 128.82C117.189 128.191 116.916 127.717 116.564 127.399C116.211 127.077 115.795 126.916 115.314 126.916C114.59 126.916 114.018 127.276 113.598 127.996C113.177 128.712 112.965 129.763 112.961 131.149C112.958 132.077 113.05 132.858 113.24 133.49C113.433 134.123 113.706 134.6 114.058 134.922C114.41 135.24 114.829 135.399 115.314 135.399ZM125.986 137.178C125.05 137.178 124.247 136.941 123.577 136.467C122.91 135.99 122.397 135.303 122.037 134.405C121.681 133.503 121.503 132.418 121.503 131.149C121.506 129.88 121.686 128.801 122.042 127.911C122.402 127.017 122.916 126.335 123.582 125.865C124.253 125.395 125.054 125.161 125.986 125.161C126.917 125.161 127.719 125.395 128.389 125.865C129.059 126.335 129.573 127.017 129.929 127.911C130.289 128.805 130.469 129.884 130.469 131.149C130.469 132.422 130.289 133.509 129.929 134.411C129.573 135.308 129.059 135.994 128.389 136.467C127.722 136.941 126.921 137.178 125.986 137.178ZM125.986 135.399C126.713 135.399 127.287 135.041 127.707 134.325C128.131 133.606 128.344 132.547 128.344 131.149C128.344 130.225 128.247 129.448 128.054 128.82C127.861 128.191 127.588 127.717 127.236 127.399C126.883 127.077 126.467 126.916 125.986 126.916C125.262 126.916 124.69 127.276 124.27 127.996C123.849 128.712 123.637 129.763 123.633 131.149C123.63 132.077 123.722 132.858 123.912 133.49C124.105 134.123 124.378 134.6 124.73 134.922C125.082 135.24 125.501 135.399 125.986 135.399ZM133.193 137.081C132.848 137.081 132.553 136.96 132.307 136.717C132.06 136.475 131.939 136.18 131.943 135.831C131.939 135.49 132.06 135.198 132.307 134.956C132.553 134.714 132.848 134.592 133.193 134.592C133.526 134.592 133.816 134.714 134.062 134.956C134.312 135.198 134.439 135.49 134.443 135.831C134.439 136.062 134.379 136.272 134.261 136.462C134.148 136.651 133.996 136.803 133.807 136.916C133.621 137.026 133.416 137.081 133.193 137.081ZM140.392 137.178C139.456 137.178 138.653 136.941 137.983 136.467C137.316 135.99 136.803 135.303 136.443 134.405C136.087 133.503 135.909 132.418 135.909 131.149C135.913 129.88 136.093 128.801 136.449 127.911C136.809 127.017 137.322 126.335 137.988 125.865C138.659 125.395 139.46 125.161 140.392 125.161C141.324 125.161 142.125 125.395 142.795 125.865C143.466 126.335 143.979 127.017 144.335 127.911C144.695 128.805 144.875 129.884 144.875 131.149C144.875 132.422 144.695 133.509 144.335 134.411C143.979 135.308 143.466 135.994 142.795 136.467C142.129 136.941 141.327 137.178 140.392 137.178ZM140.392 135.399C141.119 135.399 141.693 135.041 142.113 134.325C142.538 133.606 142.75 132.547 142.75 131.149C142.75 130.225 142.653 129.448 142.46 128.82C142.267 128.191 141.994 127.717 141.642 127.399C141.29 127.077 140.873 126.916 140.392 126.916C139.668 126.916 139.096 127.276 138.676 127.996C138.256 128.712 138.043 129.763 138.04 131.149C138.036 132.077 138.129 132.858 138.318 133.49C138.511 134.123 138.784 134.6 139.136 134.922C139.488 135.24 139.907 135.399 140.392 135.399ZM151.064 137.178C150.128 137.178 149.325 136.941 148.655 136.467C147.988 135.99 147.475 135.303 147.115 134.405C146.759 133.503 146.581 132.418 146.581 131.149C146.585 129.88 146.765 128.801 147.121 127.911C147.48 127.017 147.994 126.335 148.66 125.865C149.331 125.395 150.132 125.161 151.064 125.161C151.996 125.161 152.797 125.395 153.467 125.865C154.138 126.335 154.651 127.017 155.007 127.911C155.367 128.805 155.547 129.884 155.547 131.149C155.547 132.422 155.367 133.509 155.007 134.411C154.651 135.308 154.138 135.994 153.467 136.467C152.8 136.941 151.999 137.178 151.064 137.178ZM151.064 135.399C151.791 135.399 152.365 135.041 152.785 134.325C153.21 133.606 153.422 132.547 153.422 131.149C153.422 130.225 153.325 129.448 153.132 128.82C152.939 128.191 152.666 127.717 152.314 127.399C151.961 127.077 151.545 126.916 151.064 126.916C150.34 126.916 149.768 127.276 149.348 127.996C148.927 128.712 148.715 129.763 148.711 131.149C148.708 132.077 148.8 132.858 148.99 133.49C149.183 134.123 149.456 134.6 149.808 134.922C150.16 135.24 150.579 135.399 151.064 135.399ZM158.271 137.081C157.926 137.081 157.631 136.96 157.385 136.717C157.139 136.475 157.017 136.18 157.021 135.831C157.017 135.49 157.139 135.198 157.385 134.956C157.631 134.714 157.926 134.592 158.271 134.592C158.604 134.592 158.894 134.714 159.14 134.956C159.39 135.198 159.517 135.49 159.521 135.831C159.517 136.062 159.457 136.272 159.339 136.462C159.226 136.651 159.074 136.803 158.885 136.916C158.699 137.026 158.495 137.081 158.271 137.081ZM165.47 137.178C164.534 137.178 163.731 136.941 163.061 136.467C162.394 135.99 161.881 135.303 161.521 134.405C161.165 133.503 160.987 132.418 160.987 131.149C160.991 129.88 161.171 128.801 161.527 127.911C161.887 127.017 162.4 126.335 163.067 125.865C163.737 125.395 164.538 125.161 165.47 125.161C166.402 125.161 167.203 125.395 167.873 125.865C168.544 126.335 169.057 127.017 169.413 127.911C169.773 128.805 169.953 129.884 169.953 131.149C169.953 132.422 169.773 133.509 169.413 134.411C169.057 135.308 168.544 135.994 167.873 136.467C167.207 136.941 166.406 137.178 165.47 137.178ZM165.47 135.399C166.197 135.399 166.771 135.041 167.192 134.325C167.616 133.606 167.828 132.547 167.828 131.149C167.828 130.225 167.731 129.448 167.538 128.82C167.345 128.191 167.072 127.717 166.72 127.399C166.368 127.077 165.951 126.916 165.47 126.916C164.747 126.916 164.175 127.276 163.754 127.996C163.334 128.712 163.122 129.763 163.118 131.149C163.114 132.077 163.207 132.858 163.396 133.49C163.589 134.123 163.862 134.6 164.214 134.922C164.567 135.24 164.985 135.399 165.47 135.399ZM176.142 137.178C175.206 137.178 174.403 136.941 173.733 136.467C173.066 135.99 172.553 135.303 172.193 134.405C171.837 133.503 171.659 132.418 171.659 131.149C171.663 129.88 171.843 128.801 172.199 127.911C172.559 127.017 173.072 126.335 173.738 125.865C174.409 125.395 175.21 125.161 176.142 125.161C177.074 125.161 177.875 125.395 178.545 125.865C179.216 126.335 179.729 127.017 180.085 127.911C180.445 128.805 180.625 129.884 180.625 131.149C180.625 132.422 180.445 133.509 180.085 134.411C179.729 135.308 179.216 135.994 178.545 136.467C177.879 136.941 177.077 137.178 176.142 137.178ZM176.142 135.399C176.869 135.399 177.443 135.041 177.863 134.325C178.288 133.606 178.5 132.547 178.5 131.149C178.5 130.225 178.403 129.448 178.21 128.82C178.017 128.191 177.744 127.717 177.392 127.399C177.04 127.077 176.623 126.916 176.142 126.916C175.418 126.916 174.846 127.276 174.426 127.996C174.006 128.712 173.793 129.763 173.79 131.149C173.786 132.077 173.879 132.858 174.068 133.49C174.261 134.123 174.534 134.6 174.886 134.922C175.238 135.24 175.657 135.399 176.142 135.399ZM23.4376 150.876H25.5496V153.532H23.4376V150.876ZM17.8216 152.652H31.2136V154.332H17.8216V152.652ZM24.4936 155.148C27.7096 155.148 29.6296 156.092 29.6296 157.772C29.6296 159.452 27.7096 160.38 24.4936 160.38C21.2776 160.38 19.3416 159.452 19.3416 157.772C19.3416 156.092 21.2776 155.148 24.4936 155.148ZM24.4936 156.748C22.4936 156.748 21.5016 157.068 21.5016 157.772C21.5016 158.492 22.4936 158.796 24.4936 158.796C26.4936 158.796 27.4856 158.492 27.4856 157.772C27.4856 157.068 26.4936 156.748 24.4936 156.748ZM23.0536 146.956H24.9416V147.324C24.9416 149.548 22.9416 151.356 19.1176 151.724L18.3816 150.044C21.6296 149.772 23.0536 148.476 23.0536 147.324V146.956ZM24.0936 146.956H25.9816V147.324C25.9816 148.476 27.3896 149.772 30.6536 150.044L29.9176 151.724C26.1096 151.356 24.0936 149.564 24.0936 147.324V146.956ZM19.0376 146.172H30.0136V147.852H19.0376V146.172ZM32.5404 154.252H45.9644V155.932H32.5404V154.252ZM35.6284 155.132H37.7724V160.38H35.6284V155.132ZM40.7484 155.132H42.8924V160.38H40.7484V155.132ZM34.0764 146.012H44.4124V150.348H36.2684V152.652H34.1084V148.78H42.2524V147.708H34.0764V146.012ZM34.1084 151.516H44.7804V153.196H34.1084V151.516ZM52.9118 157.558C52.5671 157.558 52.2716 157.437 52.0254 157.195C51.7792 156.948 51.658 156.653 51.6618 156.308C51.658 155.967 51.7792 155.676 52.0254 155.433C52.2716 155.191 52.5671 155.07 52.9118 155.07C53.2451 155.07 53.5349 155.191 53.7811 155.433C54.0311 155.676 54.158 155.967 54.1618 156.308C54.158 156.539 54.0974 156.75 53.9799 156.939C53.8663 157.128 53.7148 157.28 53.5254 157.394C53.3398 157.503 53.1352 157.558 52.9118 157.558ZM52.9118 151.791C52.5671 151.791 52.2716 151.67 52.0254 151.428C51.7792 151.181 51.658 150.886 51.6618 150.541C51.658 150.2 51.7792 149.909 52.0254 149.666C52.2716 149.42 52.5671 149.297 52.9118 149.297C53.2451 149.297 53.5349 149.42 53.7811 149.666C54.0311 149.909 54.158 150.2 54.1618 150.541C54.158 150.769 54.0974 150.977 53.9799 151.166C53.8663 151.356 53.7148 151.507 53.5254 151.621C53.3398 151.734 53.1352 151.791 52.9118 151.791ZM64.5325 159.178C63.5969 159.178 62.7939 158.941 62.1234 158.467C61.4567 157.99 60.9435 157.303 60.5836 156.405C60.2276 155.503 60.0495 154.418 60.0495 153.149C60.0533 151.88 60.2333 150.801 60.5893 149.911C60.9492 149.017 61.4624 148.335 62.1291 147.865C62.7995 147.395 63.6007 147.161 64.5325 147.161C65.4643 147.161 66.2654 147.395 66.9359 147.865C67.6064 148.335 68.1196 149.017 68.4757 149.911C68.8355 150.805 69.0154 151.884 69.0154 153.149C69.0154 154.422 68.8355 155.509 68.4757 156.411C68.1196 157.308 67.6064 157.994 66.9359 158.467C66.2692 158.941 65.4681 159.178 64.5325 159.178ZM64.5325 157.399C65.2598 157.399 65.8336 157.041 66.2541 156.325C66.6783 155.606 66.8904 154.547 66.8904 153.149C66.8904 152.225 66.7939 151.448 66.6007 150.82C66.4075 150.191 66.1348 149.717 65.7825 149.399C65.4302 149.077 65.0136 148.916 64.5325 148.916C63.809 148.916 63.237 149.276 62.8166 149.996C62.3961 150.712 62.184 151.763 62.1802 153.149C62.1764 154.077 62.2692 154.858 62.4586 155.49C62.6518 156.123 62.9245 156.6 63.2768 156.922C63.6291 157.24 64.0476 157.399 64.5325 157.399ZM75.2044 159.178C74.2688 159.178 73.4657 158.941 72.7953 158.467C72.1286 157.99 71.6154 157.303 71.2555 156.405C70.8994 155.503 70.7214 154.418 70.7214 153.149C70.7252 151.88 70.9051 150.801 71.2612 149.911C71.621 149.017 72.1343 148.335 72.801 147.865C73.4714 147.395 74.2725 147.161 75.2044 147.161C76.1362 147.161 76.9373 147.395 77.6078 147.865C78.2782 148.335 78.7915 149.017 79.1475 149.911C79.5074 150.805 79.6873 151.884 79.6873 153.149C79.6873 154.422 79.5074 155.509 79.1475 156.411C78.7915 157.308 78.2782 157.994 77.6078 158.467C76.9411 158.941 76.14 159.178 75.2044 159.178ZM75.2044 157.399C75.9316 157.399 76.5055 157.041 76.926 156.325C77.3502 155.606 77.5623 154.547 77.5623 153.149C77.5623 152.225 77.4657 151.448 77.2726 150.82C77.0794 150.191 76.8066 149.717 76.4544 149.399C76.1021 149.077 75.6854 148.916 75.2044 148.916C74.4809 148.916 73.9089 149.276 73.4885 149.996C73.068 150.712 72.8559 151.763 72.8521 153.149C72.8483 154.077 72.9411 154.858 73.1305 155.49C73.3237 156.123 73.5964 156.6 73.9487 156.922C74.301 157.24 74.7195 157.399 75.2044 157.399ZM85.8762 159.178C84.9406 159.178 84.1376 158.941 83.4672 158.467C82.8005 157.99 82.2872 157.303 81.9274 156.405C81.5713 155.503 81.3933 154.418 81.3933 153.149C81.3971 151.88 81.577 150.801 81.9331 149.911C82.2929 149.017 82.8062 148.335 83.4728 147.865C84.1433 147.395 84.9444 147.161 85.8762 147.161C86.8081 147.161 87.6092 147.395 88.2797 147.865C88.9501 148.335 89.4634 149.017 89.8194 149.911C90.1793 150.805 90.3592 151.884 90.3592 153.149C90.3592 154.422 90.1793 155.509 89.8194 156.411C89.4634 157.308 88.9501 157.994 88.2797 158.467C87.613 158.941 86.8118 159.178 85.8762 159.178ZM85.8762 157.399C86.6035 157.399 87.1774 157.041 87.5978 156.325C88.0221 155.606 88.2342 154.547 88.2342 153.149C88.2342 152.225 88.1376 151.448 87.9444 150.82C87.7512 150.191 87.4785 149.717 87.1262 149.399C86.774 149.077 86.3573 148.916 85.8762 148.916C85.1528 148.916 84.5808 149.276 84.1603 149.996C83.7399 150.712 83.5278 151.763 83.524 153.149C83.5202 154.077 83.613 154.858 83.8024 155.49C83.9956 156.123 84.2683 156.6 84.6206 156.922C84.9728 157.24 85.3914 157.399 85.8762 157.399ZM24.5256 169.628H28.8776V171.324H24.5256V169.628ZM24.5256 173.228H28.8776V174.924H24.5256V173.228ZM28.0936 167.58H30.2216V178.412H28.0936V167.58ZM20.4456 180.428H30.5576V182.124H20.4456V180.428ZM20.4456 177.34H22.5736V181.308H20.4456V177.34ZM21.9176 168.444C24.1096 168.444 25.8216 170.044 25.8216 172.284C25.8216 174.492 24.1096 176.108 21.9176 176.108C19.7096 176.108 17.9976 174.492 17.9976 172.284C17.9976 170.044 19.7096 168.444 21.9176 168.444ZM21.9176 170.316C20.8296 170.316 20.0296 171.052 20.0296 172.284C20.0296 173.516 20.8296 174.252 21.9176 174.252C22.9896 174.252 23.8056 173.516 23.8056 172.284C23.8056 171.052 22.9896 170.316 21.9176 170.316ZM33.0684 174.332H34.3164C37.2284 174.332 39.0204 174.268 41.0684 173.884L41.2604 175.58C39.1804 175.98 37.3084 176.06 34.3164 176.06H33.0684V174.332ZM33.0524 168.38H39.8204V172.94H35.1804V175.148H33.0684V171.356H37.7244V170.076H33.0524V168.38ZM42.0764 167.58H44.2044V176.572H42.0764V167.58ZM43.5964 171.1H46.1724V172.844H43.5964V171.1ZM34.3164 177.244H44.2044V182.38H42.0764V178.94H34.3164V177.244ZM57.5631 167.548H59.6911V182.412H57.5631V167.548ZM54.9551 173.244H58.0431V174.956H54.9551V173.244ZM50.6831 171.404H52.3471V172.172C52.3471 175.292 51.0031 178.444 48.3151 179.644L47.1791 178.012C49.5791 176.908 50.6831 174.396 50.6831 172.172V171.404ZM51.1471 171.404H52.7951V172.172C52.7951 174.3 53.9311 176.7 56.3311 177.772L55.2111 179.388C52.4911 178.236 51.1471 175.196 51.1471 172.172V171.404ZM47.6751 169.98H55.7551V171.66H47.6751V169.98ZM50.6831 167.9H52.8111V170.844H50.6831V167.9ZM67.6305 179.558C67.2858 179.558 66.9904 179.437 66.7441 179.195C66.4979 178.948 66.3767 178.653 66.3805 178.308C66.3767 177.967 66.4979 177.676 66.7441 177.433C66.9904 177.191 67.2858 177.07 67.6305 177.07C67.9638 177.07 68.2536 177.191 68.4998 177.433C68.7498 177.676 68.8767 177.967 68.8805 178.308C68.8767 178.539 68.8161 178.75 68.6987 178.939C68.585 179.128 68.4335 179.28 68.2441 179.394C68.0585 179.503 67.854 179.558 67.6305 179.558ZM67.6305 173.791C67.2858 173.791 66.9904 173.67 66.7441 173.428C66.4979 173.181 66.3767 172.886 66.3805 172.541C66.3767 172.2 66.4979 171.909 66.7441 171.666C66.9904 171.42 67.2858 171.297 67.6305 171.297C67.9638 171.297 68.2536 171.42 68.4998 171.666C68.7498 171.909 68.8767 172.2 68.8805 172.541C68.8767 172.769 68.8161 172.977 68.6987 173.166C68.585 173.356 68.4335 173.507 68.2441 173.621C68.0585 173.734 67.854 173.791 67.6305 173.791ZM79.2512 181.178C78.3156 181.178 77.5126 180.941 76.8422 180.467C76.1755 179.99 75.6622 179.303 75.3024 178.405C74.9463 177.503 74.7683 176.418 74.7683 175.149C74.7721 173.88 74.952 172.801 75.3081 171.911C75.6679 171.017 76.1812 170.335 76.8478 169.865C77.5183 169.395 78.3194 169.161 79.2512 169.161C80.1831 169.161 80.9842 169.395 81.6547 169.865C82.3251 170.335 82.8384 171.017 83.1944 171.911C83.5543 172.805 83.7342 173.884 83.7342 175.149C83.7342 176.422 83.5543 177.509 83.1944 178.411C82.8384 179.308 82.3251 179.994 81.6547 180.467C80.988 180.941 80.1868 181.178 79.2512 181.178ZM79.2512 179.399C79.9785 179.399 80.5524 179.041 80.9728 178.325C81.3971 177.606 81.6092 176.547 81.6092 175.149C81.6092 174.225 81.5126 173.448 81.3194 172.82C81.1262 172.191 80.8535 171.717 80.5012 171.399C80.149 171.077 79.7323 170.916 79.2512 170.916C78.5278 170.916 77.9558 171.276 77.5353 171.996C77.1149 172.712 76.9028 173.763 76.899 175.149C76.8952 176.077 76.988 176.858 77.1774 177.49C77.3706 178.123 77.6433 178.6 77.9956 178.922C78.3478 179.24 78.7664 179.399 79.2512 179.399ZM90.3549 169.32V180.956H88.247V171.371H88.1788L85.4572 173.109V171.178L88.3493 169.32H90.3549ZM97.6106 181.178C96.675 181.178 95.872 180.941 95.2015 180.467C94.5349 179.99 94.0216 179.303 93.6618 178.405C93.3057 177.503 93.1277 176.418 93.1277 175.149C93.1315 173.88 93.3114 172.801 93.6674 171.911C94.0273 171.017 94.5405 170.335 95.2072 169.865C95.8777 169.395 96.6788 169.161 97.6106 169.161C98.5424 169.161 99.3436 169.395 100.014 169.865C100.684 170.335 101.198 171.017 101.554 171.911C101.914 172.805 102.094 173.884 102.094 175.149C102.094 176.422 101.914 177.509 101.554 178.411C101.198 179.308 100.684 179.994 100.014 180.467C99.3474 180.941 98.5462 181.178 97.6106 181.178ZM97.6106 179.399C98.3379 179.399 98.9118 179.041 99.3322 178.325C99.7565 177.606 99.9686 176.547 99.9686 175.149C99.9686 174.225 99.872 173.448 99.6788 172.82C99.4856 172.191 99.2129 171.717 98.8606 171.399C98.5083 171.077 98.0917 170.916 97.6106 170.916C96.8871 170.916 96.3152 171.276 95.8947 171.996C95.4743 172.712 95.2621 173.763 95.2583 175.149C95.2546 176.077 95.3474 176.858 95.5368 177.49C95.7299 178.123 96.0027 178.6 96.3549 178.922C96.7072 179.24 97.1258 179.399 97.6106 179.399ZM108.282 181.178C107.347 181.178 106.544 180.941 105.873 180.467C105.207 179.99 104.693 179.303 104.334 178.405C103.978 177.503 103.8 176.418 103.8 175.149C103.803 173.88 103.983 172.801 104.339 171.911C104.699 171.017 105.212 170.335 105.879 169.865C106.55 169.395 107.351 169.161 108.282 169.161C109.214 169.161 110.015 169.395 110.686 169.865C111.356 170.335 111.87 171.017 112.226 171.911C112.586 172.805 112.765 173.884 112.765 175.149C112.765 176.422 112.586 177.509 112.226 178.411C111.87 179.308 111.356 179.994 110.686 180.467C110.019 180.941 109.218 181.178 108.282 181.178ZM108.282 179.399C109.01 179.399 109.584 179.041 110.004 178.325C110.428 177.606 110.64 176.547 110.64 175.149C110.64 174.225 110.544 173.448 110.351 172.82C110.157 172.191 109.885 171.717 109.532 171.399C109.18 171.077 108.764 170.916 108.282 170.916C107.559 170.916 106.987 171.276 106.567 171.996C106.146 172.712 105.934 173.763 105.93 175.149C105.926 176.077 106.019 176.858 106.209 177.49C106.402 178.123 106.675 178.6 107.027 178.922C107.379 179.24 107.798 179.399 108.282 179.399ZM118.954 181.178C118.019 181.178 117.216 180.941 116.545 180.467C115.879 179.99 115.365 179.303 115.006 178.405C114.649 177.503 114.471 176.418 114.471 175.149C114.475 173.88 114.655 172.801 115.011 171.911C115.371 171.017 115.884 170.335 116.551 169.865C117.221 169.395 118.023 169.161 118.954 169.161C119.886 169.161 120.687 169.395 121.358 169.865C122.028 170.335 122.541 171.017 122.898 171.911C123.257 172.805 123.437 173.884 123.437 175.149C123.437 176.422 123.257 177.509 122.898 178.411C122.541 179.308 122.028 179.994 121.358 180.467C120.691 180.941 119.89 181.178 118.954 181.178ZM118.954 179.399C119.682 179.399 120.256 179.041 120.676 178.325C121.1 177.606 121.312 176.547 121.312 175.149C121.312 174.225 121.216 173.448 121.023 172.82C120.829 172.191 120.557 171.717 120.204 171.399C119.852 171.077 119.435 170.916 118.954 170.916C118.231 170.916 117.659 171.276 117.238 171.996C116.818 172.712 116.606 173.763 116.602 175.149C116.598 176.077 116.691 176.858 116.881 177.49C117.074 178.123 117.346 178.6 117.699 178.922C118.051 179.24 118.47 179.399 118.954 179.399ZM129.626 181.178C128.691 181.178 127.888 180.941 127.217 180.467C126.55 179.99 126.037 179.303 125.677 178.405C125.321 177.503 125.143 176.418 125.143 175.149C125.147 173.88 125.327 172.801 125.683 171.911C126.043 171.017 126.556 170.335 127.223 169.865C127.893 169.395 128.694 169.161 129.626 169.161C130.558 169.161 131.359 169.395 132.03 169.865C132.7 170.335 133.213 171.017 133.569 171.911C133.929 172.805 134.109 173.884 134.109 175.149C134.109 176.422 133.929 177.509 133.569 178.411C133.213 179.308 132.7 179.994 132.03 180.467C131.363 180.941 130.562 181.178 129.626 181.178ZM129.626 179.399C130.354 179.399 130.927 179.041 131.348 178.325C131.772 177.606 131.984 176.547 131.984 175.149C131.984 174.225 131.888 173.448 131.694 172.82C131.501 172.191 131.229 171.717 130.876 171.399C130.524 171.077 130.107 170.916 129.626 170.916C128.903 170.916 128.331 171.276 127.91 171.996C127.49 172.712 127.278 173.763 127.274 175.149C127.27 176.077 127.363 176.858 127.552 177.49C127.746 178.123 128.018 178.6 128.371 178.922C128.723 179.24 129.141 179.399 129.626 179.399ZM140.298 181.178C139.363 181.178 138.559 180.941 137.889 180.467C137.222 179.99 136.709 179.303 136.349 178.405C135.993 177.503 135.815 176.418 135.815 175.149C135.819 173.88 135.999 172.801 136.355 171.911C136.715 171.017 137.228 170.335 137.895 169.865C138.565 169.395 139.366 169.161 140.298 169.161C141.23 169.161 142.031 169.395 142.702 169.865C143.372 170.335 143.885 171.017 144.241 171.911C144.601 172.805 144.781 173.884 144.781 175.149C144.781 176.422 144.601 177.509 144.241 178.411C143.885 179.308 143.372 179.994 142.702 180.467C142.035 180.941 141.234 181.178 140.298 181.178ZM140.298 179.399C141.025 179.399 141.599 179.041 142.02 178.325C142.444 177.606 142.656 176.547 142.656 175.149C142.656 174.225 142.559 173.448 142.366 172.82C142.173 172.191 141.9 171.717 141.548 171.399C141.196 171.077 140.779 170.916 140.298 170.916C139.575 170.916 139.003 171.276 138.582 171.996C138.162 172.712 137.95 173.763 137.946 175.149C137.942 176.077 138.035 176.858 138.224 177.49C138.417 178.123 138.69 178.6 139.042 178.922C139.395 179.24 139.813 179.399 140.298 179.399ZM150.97 181.178C150.034 181.178 149.231 180.941 148.561 180.467C147.894 179.99 147.381 179.303 147.021 178.405C146.665 177.503 146.487 176.418 146.487 175.149C146.491 173.88 146.671 172.801 147.027 171.911C147.387 171.017 147.9 170.335 148.567 169.865C149.237 169.395 150.038 169.161 150.97 169.161C151.902 169.161 152.703 169.395 153.373 169.865C154.044 170.335 154.557 171.017 154.913 171.911C155.273 172.805 155.453 173.884 155.453 175.149C155.453 176.422 155.273 177.509 154.913 178.411C154.557 179.308 154.044 179.994 153.373 180.467C152.707 180.941 151.906 181.178 150.97 181.178ZM150.97 179.399C151.697 179.399 152.271 179.041 152.692 178.325C153.116 177.606 153.328 176.547 153.328 175.149C153.328 174.225 153.231 173.448 153.038 172.82C152.845 172.191 152.572 171.717 152.22 171.399C151.868 171.077 151.451 170.916 150.97 170.916C150.247 170.916 149.675 171.276 149.254 171.996C148.834 172.712 148.622 173.763 148.618 175.149C148.614 176.077 148.707 176.858 148.896 177.49C149.089 178.123 149.362 178.6 149.714 178.922C150.067 179.24 150.485 179.399 150.97 179.399ZM161.642 181.178C160.706 181.178 159.903 180.941 159.233 180.467C158.566 179.99 158.053 179.303 157.693 178.405C157.337 177.503 157.159 176.418 157.159 175.149C157.163 173.88 157.343 172.801 157.699 171.911C158.059 171.017 158.572 170.335 159.238 169.865C159.909 169.395 160.71 169.161 161.642 169.161C162.574 169.161 163.375 169.395 164.045 169.865C164.716 170.335 165.229 171.017 165.585 171.911C165.945 172.805 166.125 173.884 166.125 175.149C166.125 176.422 165.945 177.509 165.585 178.411C165.229 179.308 164.716 179.994 164.045 180.467C163.379 180.941 162.577 181.178 161.642 181.178ZM161.642 179.399C162.369 179.399 162.943 179.041 163.363 178.325C163.788 177.606 164 176.547 164 175.149C164 174.225 163.903 173.448 163.71 172.82C163.517 172.191 163.244 171.717 162.892 171.399C162.54 171.077 162.123 170.916 161.642 170.916C160.918 170.916 160.346 171.276 159.926 171.996C159.506 172.712 159.293 173.763 159.29 175.149C159.286 176.077 159.379 176.858 159.568 177.49C159.761 178.123 160.034 178.6 160.386 178.922C160.738 179.24 161.157 179.399 161.642 179.399ZM172.314 181.178C171.378 181.178 170.575 180.941 169.905 180.467C169.238 179.99 168.725 179.303 168.365 178.405C168.009 177.503 167.831 176.418 167.831 175.149C167.835 173.88 168.015 172.801 168.371 171.911C168.73 171.017 169.244 170.335 169.91 169.865C170.581 169.395 171.382 169.161 172.314 169.161C173.246 169.161 174.047 169.395 174.717 169.865C175.388 170.335 175.901 171.017 176.257 171.911C176.617 172.805 176.797 173.884 176.797 175.149C176.797 176.422 176.617 177.509 176.257 178.411C175.901 179.308 175.388 179.994 174.717 180.467C174.05 180.941 173.249 181.178 172.314 181.178ZM172.314 179.399C173.041 179.399 173.615 179.041 174.035 178.325C174.46 177.606 174.672 176.547 174.672 175.149C174.672 174.225 174.575 173.448 174.382 172.82C174.189 172.191 173.916 171.717 173.564 171.399C173.211 171.077 172.795 170.916 172.314 170.916C171.59 170.916 171.018 171.276 170.598 171.996C170.177 172.712 169.965 173.763 169.961 175.149C169.958 176.077 170.05 176.858 170.24 177.49C170.433 178.123 170.706 178.6 171.058 178.922C171.41 179.24 171.829 179.399 172.314 179.399ZM23.3096 191.212H25.1496V191.644C25.1496 194.252 23.0216 196.38 19.2616 196.892L18.4776 195.228C21.7416 194.828 23.3096 193.164 23.3096 191.644V191.212ZM23.9176 191.212H25.7576V191.644C25.7576 193.164 27.3256 194.828 30.5896 195.228L29.8216 196.892C26.0456 196.38 23.9176 194.252 23.9176 191.644V191.212ZM23.4216 198.956H25.5336V204.396H23.4216V198.956ZM17.8376 197.74H31.2296V199.436H17.8376V197.74ZM19.0216 190.316H30.0136V191.996H19.0216V190.316ZM32.5564 200.908H45.9644V202.652H32.5564V200.908ZM38.1244 197.612H40.2364V201.372H38.1244V197.612ZM38.0444 190.38H39.9004V191.452C39.9004 194.604 37.6124 197.388 33.7404 198.092L32.8604 196.316C36.2364 195.772 38.0444 193.5 38.0444 191.452V190.38ZM38.4604 190.38H40.3164V191.452C40.3164 193.548 42.1244 195.772 45.5164 196.316L44.6364 198.092C40.7484 197.372 38.4604 194.652 38.4604 191.452V190.38ZM52.9118 203.081C52.5671 203.081 52.2716 202.96 52.0254 202.717C51.7792 202.475 51.658 202.18 51.6618 201.831C51.658 201.49 51.7792 201.198 52.0254 200.956C52.2716 200.714 52.5671 200.592 52.9118 200.592C53.2451 200.592 53.5349 200.714 53.7811 200.956C54.0311 201.198 54.158 201.49 54.1618 201.831C54.158 202.062 54.0974 202.272 53.9799 202.462C53.8663 202.651 53.7148 202.803 53.5254 202.916C53.3398 203.026 53.1352 203.081 52.9118 203.081ZM52.9118 196.854C52.5671 196.854 52.2716 196.733 52.0254 196.49C51.7792 196.244 51.658 195.948 51.6618 195.604C51.658 195.263 51.7792 194.971 52.0254 194.729C52.2716 194.483 52.5671 194.359 52.9118 194.359C53.2451 194.359 53.5349 194.483 53.7811 194.729C54.0311 194.971 54.158 195.263 54.1618 195.604C54.158 195.831 54.0974 196.039 53.9799 196.229C53.8663 196.418 53.7148 196.57 53.5254 196.683C53.3398 196.797 53.1352 196.854 52.9118 196.854ZM67.3093 194.188H71.2133V195.9H67.3093V194.188ZM63.2773 190.7H65.0053V192.844C65.0053 196.572 63.7413 200.012 60.9573 201.404L59.6293 199.692C62.1573 198.524 63.2773 195.66 63.2773 192.844V190.7ZM63.7253 190.7H65.4213V192.844C65.4213 195.66 66.4933 198.364 68.9413 199.452L67.6773 201.148C64.8933 199.804 63.7253 196.54 63.7253 192.844V190.7ZM70.1573 189.548H72.2693V204.412H70.1573V189.548ZM80.172 196.62H82.3V198.684H80.172V196.62ZM81.26 189.708C84.636 189.708 86.62 190.588 86.62 192.22C86.62 193.852 84.636 194.748 81.26 194.748C77.868 194.748 75.9 193.852 75.9 192.22C75.9 190.588 77.868 189.708 81.26 189.708ZM81.26 191.26C79.116 191.26 78.108 191.564 78.108 192.22C78.108 192.908 79.116 193.196 81.26 193.196C83.404 193.196 84.412 192.908 84.412 192.22C84.412 191.564 83.404 191.26 81.26 191.26ZM74.556 195.388H87.948V197.068H74.556V195.388ZM76.092 198.028H86.332V201.836H78.204V203.148H76.108V200.364H84.236V199.612H76.092V198.028ZM76.108 202.684H86.716V204.284H76.108V202.684ZM92.8908 190.7H94.6188V192.86C94.6188 196.668 93.3068 200.108 90.3628 201.468L89.0988 199.708C91.6748 198.588 92.8908 195.74 92.8908 192.86V190.7ZM93.3068 190.7H95.0348V192.86C95.0348 195.596 96.2028 198.316 98.7308 199.404L97.4828 201.116C94.6188 199.804 93.3068 196.508 93.3068 192.86V190.7ZM99.4348 189.548H101.579V204.412H99.4348V189.548ZM113.669 197.263V198.956H108.43V197.263H113.669ZM121.122 197.263V198.956H115.883V197.263H121.122ZM128.575 197.263V198.956H123.336V197.263H128.575ZM136.028 197.263V198.956H130.79V197.263H136.028Z" fill="black"/>
<path d="M18.0055 90.797V89.1208L22.943 81.3197H24.3407V83.7061H23.4885L20.1646 88.9731V89.064H27.0566V90.797H18.0055ZM23.5566 92.9561V90.2856L23.5794 89.5356V81.3197H25.568V92.9561H23.5566ZM33.4487 81.3197V92.9561H31.3407V83.3708H31.2725L28.551 85.1095V83.1776L31.443 81.3197H33.4487ZM40.7044 93.1776C39.7688 93.1776 38.9657 92.9409 38.2953 92.4674C37.6286 91.9901 37.1154 91.3026 36.7555 90.4049C36.3994 89.5034 36.2214 88.4182 36.2214 87.1492C36.2252 85.8803 36.4051 84.8008 36.7612 83.9106C37.121 83.0167 37.6343 82.3348 38.301 81.8651C38.9714 81.3954 39.7725 81.1606 40.7044 81.1606C41.6362 81.1606 42.4373 81.3954 43.1078 81.8651C43.7782 82.3348 44.2915 83.0167 44.6475 83.9106C45.0074 84.8045 45.1873 85.8841 45.1873 87.1492C45.1873 88.422 45.0074 89.5091 44.6475 90.4106C44.2915 91.3083 43.7782 91.9939 43.1078 92.4674C42.4411 92.9409 41.64 93.1776 40.7044 93.1776ZM40.7044 91.3992C41.4316 91.3992 42.0055 91.0413 42.426 90.3254C42.8502 89.6057 43.0623 88.547 43.0623 87.1492C43.0623 86.225 42.9657 85.4485 42.7726 84.8197C42.5794 84.1909 42.3066 83.7174 41.9544 83.3992C41.6021 83.0773 41.1854 82.9163 40.7044 82.9163C39.9809 82.9163 39.4089 83.2761 38.9885 83.9958C38.568 84.7117 38.3559 85.7629 38.3521 87.1492C38.3483 88.0773 38.4411 88.8576 38.6305 89.4901C38.8237 90.1227 39.0964 90.6 39.4487 90.922C39.801 91.2401 40.2195 91.3992 40.7044 91.3992ZM49.6944 87.8651L49.8251 85.564L47.8933 86.8311L47.2001 85.6265L49.2626 84.5924L47.2001 83.5583L47.8933 82.3538L49.8251 83.6208L49.6944 81.3197H51.0751L50.9501 83.6208L52.8819 82.3538L53.5751 83.5583L51.5069 84.5924L53.5751 85.6265L52.8819 86.8311L50.9501 85.564L51.0751 87.8651H49.6944ZM58.3819 87.8651L58.5126 85.564L56.5808 86.8311L55.8876 85.6265L57.9501 84.5924L55.8876 83.5583L56.5808 82.3538L58.5126 83.6208L58.3819 81.3197H59.7626L59.6376 83.6208L61.5694 82.3538L62.2626 83.5583L60.1944 84.5924L62.2626 85.6265L61.5694 86.8311L59.6376 85.564L59.7626 87.8651H58.3819ZM67.0694 87.8651L67.2001 85.564L65.2683 86.8311L64.5751 85.6265L66.6376 84.5924L64.5751 83.5583L65.2683 82.3538L67.2001 83.6208L67.0694 81.3197H68.4501L68.3251 83.6208L70.2569 82.3538L70.9501 83.5583L68.8819 84.5924L70.9501 85.6265L70.2569 86.8311L68.3251 85.564L68.4501 87.8651H67.0694ZM75.7569 87.8651L75.8876 85.564L73.9558 86.8311L73.2626 85.6265L75.3251 84.5924L73.2626 83.5583L73.9558 82.3538L75.8876 83.6208L75.7569 81.3197H77.1376L77.0126 83.6208L78.9444 82.3538L79.6376 83.5583L77.5694 84.5924L79.6376 85.6265L78.9444 86.8311L77.0126 85.564L77.1376 87.8651H75.7569ZM84.4444 87.8651L84.5751 85.564L82.6433 86.8311L81.9501 85.6265L84.0126 84.5924L81.9501 83.5583L82.6433 82.3538L84.5751 83.6208L84.4444 81.3197H85.8251L85.7001 83.6208L87.6319 82.3538L88.3251 83.5583L86.2569 84.5924L88.3251 85.6265L87.6319 86.8311L85.7001 85.564L85.8251 87.8651H84.4444ZM93.1319 87.8651L93.2626 85.564L91.3308 86.8311L90.6376 85.6265L92.7001 84.5924L90.6376 83.5583L91.3308 82.3538L93.2626 83.6208L93.1319 81.3197H94.5126L94.3876 83.6208L96.3194 82.3538L97.0126 83.5583L94.9444 84.5924L97.0126 85.6265L96.3194 86.8311L94.3876 85.564L94.5126 87.8651H93.1319ZM101.819 87.8651L101.95 85.564L100.018 86.8311L99.3251 85.6265L101.388 84.5924L99.3251 83.5583L100.018 82.3538L101.95 83.6208L101.819 81.3197H103.2L103.075 83.6208L105.007 82.3538L105.7 83.5583L103.632 84.5924L105.7 85.6265L105.007 86.8311L103.075 85.564L103.2 87.8651H101.819ZM110.507 87.8651L110.638 85.564L108.706 86.8311L108.013 85.6265L110.075 84.5924L108.013 83.5583L108.706 82.3538L110.638 83.6208L110.507 81.3197H111.888L111.763 83.6208L113.694 82.3538L114.388 83.5583L112.319 84.5924L114.388 85.6265L113.694 86.8311L111.763 85.564L111.888 87.8651H110.507ZM119.194 87.8651L119.325 85.564L117.393 86.8311L116.7 85.6265L118.763 84.5924L116.7 83.5583L117.393 82.3538L119.325 83.6208L119.194 81.3197H120.575L120.45 83.6208L122.382 82.3538L123.075 83.5583L121.007 84.5924L123.075 85.6265L122.382 86.8311L120.45 85.564L120.575 87.8651H119.194ZM127.882 87.8651L128.013 85.564L126.081 86.8311L125.388 85.6265L127.45 84.5924L125.388 83.5583L126.081 82.3538L128.013 83.6208L127.882 81.3197H129.263L129.138 83.6208L131.069 82.3538L131.763 83.5583L129.694 84.5924L131.763 85.6265L131.069 86.8311L129.138 85.564L129.263 87.8651H127.882ZM136.569 87.8651L136.7 85.564L134.768 86.8311L134.075 85.6265L136.138 84.5924L134.075 83.5583L134.768 82.3538L136.7 83.6208L136.569 81.3197H137.95L137.825 83.6208L139.757 82.3538L140.45 83.5583L138.382 84.5924L140.45 85.6265L139.757 86.8311L137.825 85.564L137.95 87.8651H136.569ZM145.257 87.8651L145.388 85.564L143.456 86.8311L142.763 85.6265L144.825 84.5924L142.763 83.5583L143.456 82.3538L145.388 83.6208L145.257 81.3197H146.638L146.513 83.6208L148.444 82.3538L149.138 83.5583L147.069 84.5924L149.138 85.6265L148.444 86.8311L146.513 85.564L146.638 87.8651H145.257Z" fill="#F5B86F"/>
<path d="M232.216 126.681H233.992V128.009C233.992 130.985 232.664 133.593 229.752 134.569L228.648 132.857C231.176 132.041 232.216 130.041 232.216 128.009V126.681ZM232.664 126.681H234.376V127.913C234.376 129.881 235.336 131.705 237.688 132.457L236.584 134.121C233.848 133.177 232.664 130.793 232.664 127.913V126.681ZM239.048 125.913H241.176V134.585H239.048V125.913ZM236.152 134.969C239.288 134.969 241.224 136.041 241.224 137.849C241.224 139.673 239.288 140.729 236.152 140.729C233.016 140.729 231.08 139.673 231.08 137.849C231.08 136.041 233.016 134.969 236.152 134.969ZM236.152 136.617C234.232 136.617 233.208 137.017 233.208 137.849C233.208 138.681 234.232 139.097 236.152 139.097C238.088 139.097 239.112 138.681 239.112 137.849C239.112 137.017 238.088 136.617 236.152 136.617ZM236.344 128.601H239.352V130.329H236.344V128.601ZM250.647 127.769H254.231V129.369H250.647V127.769ZM250.647 130.473H254.231V132.073H250.647V130.473ZM253.767 125.913H255.895V133.513H253.767V125.913ZM246.103 134.089H255.895V138.057H248.231V139.929H246.119V136.521H253.783V135.721H246.103V134.089ZM246.119 138.921H256.311V140.569H246.119V138.921ZM244.119 126.521H246.231V128.249H249.047V126.521H251.127V133.113H244.119V126.521ZM246.231 129.849V131.449H249.047V129.849H246.231ZM263.866 137.907C263.522 137.907 263.226 137.786 262.98 137.543C262.734 137.297 262.613 137.002 262.616 136.657C262.613 136.316 262.734 136.024 262.98 135.782C263.226 135.54 263.522 135.418 263.866 135.418C264.2 135.418 264.489 135.54 264.736 135.782C264.986 136.024 265.113 136.316 265.116 136.657C265.113 136.888 265.052 137.098 264.935 137.288C264.821 137.477 264.669 137.629 264.48 137.742C264.294 137.852 264.09 137.907 263.866 137.907ZM263.866 132.14C263.522 132.14 263.226 132.019 262.98 131.776C262.734 131.53 262.613 131.235 262.616 130.89C262.613 130.549 262.734 130.257 262.98 130.015C263.226 129.769 263.522 129.646 263.866 129.646C264.2 129.646 264.489 129.769 264.736 130.015C264.986 130.257 265.113 130.549 265.116 130.89C265.113 131.117 265.052 131.326 264.935 131.515C264.821 131.704 264.669 131.856 264.48 131.969C264.294 132.083 264.09 132.14 263.866 132.14ZM275.487 139.526C274.551 139.526 273.748 139.29 273.078 138.816C272.411 138.339 271.898 137.651 271.538 136.754C271.182 135.852 271.004 134.767 271.004 133.498C271.008 132.229 271.188 131.149 271.544 130.259C271.904 129.365 272.417 128.683 273.084 128.214C273.754 127.744 274.555 127.509 275.487 127.509C276.419 127.509 277.22 127.744 277.89 128.214C278.561 128.683 279.074 129.365 279.43 130.259C279.79 131.153 279.97 132.233 279.97 133.498C279.97 134.771 279.79 135.858 279.43 136.759C279.074 137.657 278.561 138.343 277.89 138.816C277.224 139.29 276.423 139.526 275.487 139.526ZM275.487 137.748C276.214 137.748 276.788 137.39 277.209 136.674C277.633 135.954 277.845 134.896 277.845 133.498C277.845 132.574 277.748 131.797 277.555 131.168C277.362 130.54 277.089 130.066 276.737 129.748C276.385 129.426 275.968 129.265 275.487 129.265C274.764 129.265 274.192 129.625 273.771 130.344C273.351 131.06 273.139 132.112 273.135 133.498C273.131 134.426 273.224 135.206 273.413 135.839C273.606 136.471 273.879 136.949 274.231 137.271C274.584 137.589 275.002 137.748 275.487 137.748ZM234.408 155.353H236.536V157.961H234.408V155.353ZM228.776 154.649H242.168V156.329H228.776V154.649ZM235.448 157.385C238.648 157.385 240.584 158.345 240.584 160.057C240.584 161.769 238.648 162.729 235.448 162.729C232.232 162.729 230.296 161.769 230.296 160.057C230.296 158.345 232.232 157.385 235.448 157.385ZM235.448 158.985C233.464 158.985 232.456 159.321 232.456 160.057C232.456 160.777 233.464 161.129 235.448 161.129C237.432 161.129 238.44 160.777 238.44 160.057C238.44 159.321 237.432 158.985 235.448 158.985ZM234.008 149.305H235.896V149.673C235.896 151.897 233.896 153.721 230.072 154.073L229.336 152.409C232.584 152.137 234.008 150.825 234.008 149.673V149.305ZM235.048 149.305H236.936V149.673C236.936 150.841 238.344 152.137 241.608 152.409L240.872 154.073C237.064 153.721 235.048 151.913 235.048 149.673V149.305ZM229.992 148.521H240.968V150.201H229.992V148.521ZM246.935 148.681H248.711V150.009C248.711 152.985 247.383 155.593 244.471 156.569L243.367 154.857C245.895 154.041 246.935 152.041 246.935 150.009V148.681ZM247.383 148.681H249.095V149.913C249.095 151.881 250.055 153.705 252.407 154.457L251.303 156.121C248.567 155.177 247.383 152.793 247.383 149.913V148.681ZM253.767 147.913H255.895V156.585H253.767V147.913ZM250.871 156.969C254.007 156.969 255.943 158.041 255.943 159.849C255.943 161.673 254.007 162.729 250.871 162.729C247.735 162.729 245.799 161.673 245.799 159.849C245.799 158.041 247.735 156.969 250.871 156.969ZM250.871 158.617C248.951 158.617 247.927 159.017 247.927 159.849C247.927 160.681 248.951 161.097 250.871 161.097C252.807 161.097 253.831 160.681 253.831 159.849C253.831 159.017 252.807 158.617 250.871 158.617ZM251.063 150.601H254.071V152.329H251.063V150.601ZM261.638 156.681H263.766V159.081H261.638V156.681ZM267.862 147.913H270.006V162.729H267.862V147.913ZM269.254 153.929H271.862V155.689H269.254V153.929ZM258.31 160.265L258.054 158.553C260.614 158.553 264.134 158.537 267.126 158.121L267.286 159.657C264.166 160.265 260.806 160.265 258.31 160.265ZM258.326 149.545H267.046V151.209H258.326V149.545ZM262.71 151.801C264.822 151.801 266.326 152.921 266.326 154.569C266.326 156.233 264.822 157.353 262.71 157.353C260.582 157.353 259.094 156.233 259.094 154.569C259.094 152.921 260.582 151.801 262.71 151.801ZM262.71 153.401C261.734 153.401 261.11 153.817 261.11 154.569C261.11 155.337 261.734 155.753 262.71 155.753C263.67 155.753 264.31 155.337 264.31 154.569C264.31 153.817 263.67 153.401 262.71 153.401ZM261.638 147.993H263.766V150.793H261.638V147.993ZM283.525 150.937H287.557V152.649H283.525V150.937ZM283.525 155.529H287.557V157.241H283.525V155.529ZM280.965 148.937C283.173 148.937 284.789 150.985 284.789 154.217C284.789 157.481 283.173 159.529 280.965 159.529C278.741 159.529 277.141 157.481 277.141 154.217C277.141 150.985 278.741 148.937 280.965 148.937ZM280.965 150.873C279.893 150.873 279.157 152.041 279.157 154.217C279.157 156.425 279.893 157.609 280.965 157.609C282.053 157.609 282.773 156.425 282.773 154.217C282.773 152.041 282.053 150.873 280.965 150.873ZM287.221 147.897H289.333V162.761H287.221V147.897ZM291.62 156.441H305.044V158.121H291.62V156.441ZM297.22 157.289H299.332V162.729H297.22V157.289ZM293.156 148.473H295.268V150.153H301.348V148.473H303.46V155.033H293.156V148.473ZM295.268 151.817V153.337H301.348V151.817H295.268ZM311.991 159.907C311.647 159.907 311.351 159.786 311.105 159.543C310.859 159.297 310.738 159.002 310.741 158.657C310.738 158.316 310.859 158.024 311.105 157.782C311.351 157.54 311.647 157.418 311.991 157.418C312.325 157.418 312.614 157.54 312.861 157.782C313.111 158.024 313.238 158.316 313.241 158.657C313.238 158.888 313.177 159.098 313.06 159.288C312.946 159.477 312.794 159.629 312.605 159.742C312.419 159.852 312.215 159.907 311.991 159.907ZM311.991 154.14C311.647 154.14 311.351 154.019 311.105 153.776C310.859 153.53 310.738 153.235 310.741 152.89C310.738 152.549 310.859 152.257 311.105 152.015C311.351 151.769 311.647 151.646 311.991 151.646C312.325 151.646 312.614 151.769 312.861 152.015C313.111 152.257 313.238 152.549 313.241 152.89C313.238 153.117 313.177 153.326 313.06 153.515C312.946 153.704 312.794 153.856 312.605 153.969C312.419 154.083 312.215 154.14 311.991 154.14ZM329.822 155.487C329.822 156.74 329.587 157.814 329.118 158.708C328.652 159.598 328.015 160.28 327.209 160.754C326.406 161.227 325.495 161.464 324.476 161.464C323.457 161.464 322.544 161.227 321.737 160.754C320.934 160.276 320.298 159.593 319.828 158.702C319.362 157.808 319.129 156.737 319.129 155.487C319.129 154.233 319.362 153.161 319.828 152.271C320.298 151.377 320.934 150.693 321.737 150.219C322.544 149.746 323.457 149.509 324.476 149.509C325.495 149.509 326.406 149.746 327.209 150.219C328.015 150.693 328.652 151.377 329.118 152.271C329.587 153.161 329.822 154.233 329.822 155.487ZM327.703 155.487C327.703 154.604 327.565 153.86 327.288 153.254C327.015 152.644 326.637 152.183 326.152 151.873C325.667 151.558 325.108 151.401 324.476 151.401C323.843 151.401 323.284 151.558 322.8 151.873C322.315 152.183 321.934 152.644 321.658 153.254C321.385 153.86 321.248 154.604 321.248 155.487C321.248 156.369 321.385 157.115 321.658 157.725C321.934 158.331 322.315 158.791 322.8 159.106C323.284 159.416 323.843 159.572 324.476 159.572C325.108 159.572 325.667 159.416 326.152 159.106C326.637 158.791 327.015 158.331 327.288 157.725C327.565 157.115 327.703 156.369 327.703 155.487Z" fill="black"/>
<path d="M228.792 181.289H242.2V183.017H228.792V181.289ZM234.408 178.121H236.536V181.705H234.408V178.121ZM230.2 170.857H232.312V173.129H238.632V170.857H240.744V178.569H230.2V170.857ZM232.312 174.793V176.873H238.632V174.793H232.312ZM244.071 171.753H256.295V173.449H244.071V171.753ZM243.511 181.529H256.919V183.241H243.511V181.529ZM249.127 179.577H251.239V182.201H249.127V179.577ZM250.167 174.089C253.255 174.089 255.191 175.161 255.191 176.985C255.191 178.809 253.255 179.881 250.167 179.881C247.079 179.881 245.143 178.809 245.143 176.985C245.143 175.161 247.079 174.089 250.167 174.089ZM250.167 175.737C248.311 175.737 247.319 176.137 247.319 176.985C247.319 177.833 248.311 178.217 250.167 178.217C252.023 178.217 253.015 177.833 253.015 176.985C253.015 176.137 252.023 175.737 250.167 175.737ZM249.127 170.073H251.239V172.809H249.127V170.073ZM261.542 172.249H263.222V173.913C263.222 177.257 261.814 180.665 259.094 181.945L257.894 180.265C260.342 179.113 261.542 176.345 261.542 173.913V172.249ZM261.99 172.249H263.67V173.913C263.67 176.153 264.822 178.777 267.254 179.897L266.086 181.577C263.366 180.313 261.99 177.065 261.99 173.913V172.249ZM258.47 171.337H266.598V173.081H258.47V171.337ZM267.686 169.913H269.83V184.729H267.686V169.913ZM269.35 175.561H271.974V177.321H269.35V175.561ZM278.585 181.907C278.24 181.907 277.945 181.786 277.699 181.543C277.453 181.297 277.331 181.002 277.335 180.657C277.331 180.316 277.453 180.024 277.699 179.782C277.945 179.54 278.24 179.418 278.585 179.418C278.918 179.418 279.208 179.54 279.454 179.782C279.704 180.024 279.831 180.316 279.835 180.657C279.831 180.888 279.771 181.098 279.653 181.288C279.54 181.477 279.388 181.629 279.199 181.742C279.013 181.852 278.809 181.907 278.585 181.907ZM278.585 176.14C278.24 176.14 277.945 176.019 277.699 175.776C277.453 175.53 277.331 175.235 277.335 174.89C277.331 174.549 277.453 174.257 277.699 174.015C277.945 173.769 278.24 173.646 278.585 173.646C278.918 173.646 279.208 173.769 279.454 174.015C279.704 174.257 279.831 174.549 279.835 174.89C279.831 175.117 279.771 175.326 279.653 175.515C279.54 175.704 279.388 175.856 279.199 175.969C279.013 176.083 278.809 176.14 278.585 176.14ZM290.206 183.526C289.27 183.526 288.467 183.29 287.797 182.816C287.13 182.339 286.617 181.651 286.257 180.754C285.901 179.852 285.723 178.767 285.723 177.498C285.727 176.229 285.907 175.149 286.263 174.259C286.622 173.365 287.136 172.683 287.802 172.214C288.473 171.744 289.274 171.509 290.206 171.509C291.138 171.509 291.939 171.744 292.609 172.214C293.28 172.683 293.793 173.365 294.149 174.259C294.509 175.153 294.689 176.233 294.689 177.498C294.689 178.771 294.509 179.858 294.149 180.759C293.793 181.657 293.28 182.343 292.609 182.816C291.943 183.29 291.141 183.526 290.206 183.526ZM290.206 181.748C290.933 181.748 291.507 181.39 291.927 180.674C292.352 179.954 292.564 178.896 292.564 177.498C292.564 176.574 292.467 175.797 292.274 175.168C292.081 174.54 291.808 174.066 291.456 173.748C291.104 173.426 290.687 173.265 290.206 173.265C289.482 173.265 288.91 173.625 288.49 174.344C288.069 175.06 287.857 176.112 287.854 177.498C287.85 178.426 287.943 179.206 288.132 179.839C288.325 180.471 288.598 180.949 288.95 181.271C289.302 181.589 289.721 181.748 290.206 181.748ZM300.878 183.526C299.942 183.526 299.139 183.29 298.469 182.816C297.802 182.339 297.289 181.651 296.929 180.754C296.573 179.852 296.395 178.767 296.395 177.498C296.399 176.229 296.578 175.149 296.935 174.259C297.294 173.365 297.808 172.683 298.474 172.214C299.145 171.744 299.946 171.509 300.878 171.509C301.81 171.509 302.611 171.744 303.281 172.214C303.952 172.683 304.465 173.365 304.821 174.259C305.181 175.153 305.361 176.233 305.361 177.498C305.361 178.771 305.181 179.858 304.821 180.759C304.465 181.657 303.952 182.343 303.281 182.816C302.614 183.29 301.813 183.526 300.878 183.526ZM300.878 181.748C301.605 181.748 302.179 181.39 302.599 180.674C303.024 179.954 303.236 178.896 303.236 177.498C303.236 176.574 303.139 175.797 302.946 175.168C302.753 174.54 302.48 174.066 302.128 173.748C301.775 173.426 301.359 173.265 300.878 173.265C300.154 173.265 299.582 173.625 299.162 174.344C298.741 175.06 298.529 176.112 298.525 177.498C298.522 178.426 298.614 179.206 298.804 179.839C298.997 180.471 299.27 180.949 299.622 181.271C299.974 181.589 300.393 181.748 300.878 181.748ZM311.55 183.526C310.614 183.526 309.811 183.29 309.14 182.816C308.474 182.339 307.961 181.651 307.601 180.754C307.245 179.852 307.067 178.767 307.067 177.498C307.07 176.229 307.25 175.149 307.606 174.259C307.966 173.365 308.48 172.683 309.146 172.214C309.817 171.744 310.618 171.509 311.55 171.509C312.481 171.509 313.283 171.744 313.953 172.214C314.623 172.683 315.137 173.365 315.493 174.259C315.853 175.153 316.033 176.233 316.033 177.498C316.033 178.771 315.853 179.858 315.493 180.759C315.137 181.657 314.623 182.343 313.953 182.816C313.286 183.29 312.485 183.526 311.55 183.526ZM311.55 181.748C312.277 181.748 312.851 181.39 313.271 180.674C313.695 179.954 313.908 178.896 313.908 177.498C313.908 176.574 313.811 175.797 313.618 175.168C313.425 174.54 313.152 174.066 312.8 173.748C312.447 173.426 312.031 173.265 311.55 173.265C310.826 173.265 310.254 173.625 309.834 174.344C309.413 175.06 309.201 176.112 309.197 177.498C309.194 178.426 309.286 179.206 309.476 179.839C309.669 180.471 309.942 180.949 310.294 181.271C310.646 181.589 311.065 181.748 311.55 181.748Z" fill="#F5B86F"/>
</svg>
