<svg width="111" height="123" viewBox="0 0 111 123" fill="none" xmlns="http://www.w3.org/2000/svg">
<path fill-rule="evenodd" clip-rule="evenodd" d="M108.546 45.1432C100.786 22.1094 77.1563 7.57472 52.4887 11.9243C25.2916 16.7199 7.13165 42.655 11.9272 69.852C16.7228 97.0491 42.6579 115.209 69.855 110.413C88.4804 107.129 102.868 93.9307 108.546 77.2022V45.1432Z" fill="#FF669D" fill-opacity="0.4"/>
<g clip-path="url(#clip0_1597_5108)">
<path d="M90.0657 66.2578L85.2769 39.0994C85.046 37.7898 84.3043 36.6256 83.215 35.8628C82.1257 35.1001 80.778 34.8013 79.4684 35.0322V35.0322C78.1587 35.2631 76.9945 36.0048 76.2317 37.0941C75.469 38.1835 75.1702 39.5312 75.4011 40.8408L78.4485 58.1234M78.4485 58.1234L73.6598 30.965C73.4289 29.6554 72.6871 28.4911 71.5978 27.7284C70.5085 26.9656 69.1608 26.6668 67.8512 26.8978C66.5416 27.1287 65.3773 27.8704 64.6146 28.9597C63.8518 30.049 63.5531 31.3967 63.784 32.7064L68.1374 57.3958M58.2888 59.2915L54.3435 36.9167C54.1126 35.6071 53.3709 34.4428 52.2816 33.6801C51.1923 32.9173 49.8446 32.6185 48.5349 32.8495V32.8495C47.2253 33.0804 46.0611 33.8221 45.2983 34.9114C44.5356 36.0007 44.2368 37.3484 44.4677 38.658L50.5625 73.2233M68.1374 57.3958L62.9133 27.7685C62.6824 26.4588 61.9407 25.2946 60.8513 24.5318C59.762 23.7691 58.4143 23.4703 57.1047 23.7012C55.7951 23.9322 54.6309 24.6739 53.8681 25.7632C53.1054 26.8525 52.8066 28.2002 53.0375 29.5098L58.2616 59.1372" stroke="white" stroke-width="5.38508" stroke-linecap="round" stroke-linejoin="round"/>
<path d="M90.0932 66.4377C93.2876 84.5536 85.0062 95.3375 71.427 97.7319C57.8478 100.126 51.2599 94.9872 46.8121 88.0707L34.7665 67.2833C33.2477 64.6792 33.2582 62.0139 35.4119 60.2324C37.5668 58.4491 40.8367 58.5949 42.5671 60.8291L50.5901 73.4031" stroke="white" stroke-width="5.38508" stroke-linecap="round" stroke-linejoin="round"/>
</g>
<path fill-rule="evenodd" clip-rule="evenodd" d="M108.547 22.4765C94.9933 5.9117 73.1267 -3.04167 50.5491 0.939369C17.2851 6.80472 -4.92598 38.5254 0.939369 71.7895C6.80472 105.054 38.5254 127.265 71.7895 121.399C86.8237 118.748 99.6 110.816 108.547 99.8464V93.4199C100.15 105.753 86.9755 114.816 71.1215 117.611C39.9495 123.108 10.2239 102.294 4.72742 71.1215C-0.769048 39.9495 20.0451 10.2239 51.2171 4.72742C74.1198 0.689056 96.2417 10.8535 108.547 28.8937V22.4765Z" fill="#FF669D" fill-opacity="0.4"/>
<defs>
<clipPath id="clip0_1597_5108">
<rect width="85.9554" height="85.9554" fill="white" transform="translate(11.3811 26.3076) rotate(-10)"/>
</clipPath>
</defs>
</svg>
