<svg width="302" height="285" viewBox="0 0 302 285" fill="none" xmlns="http://www.w3.org/2000/svg">
<path d="M111.719 15.1751C111.316 16.0966 110.736 16.9486 110.069 17.7175C107.753 20.3871 106.691 24.5667 108.937 27.2962L116.724 36.7631C117.639 37.8754 118.958 38.5734 120.394 38.6944C133.209 39.7745 155.548 41.3236 157.569 40.1108C160.25 38.502 162.395 31.2627 157.569 28.5814C153.91 26.5488 154.136 20.664 154.778 17.5432C154.846 17.214 154.899 16.886 154.904 16.5499C154.965 12.7696 153.782 5.25337 148.453 1.76879C138.8 -3.05748 134.778 3.37754 132.633 4.71817C130.488 6.0588 127.539 11.4213 122.981 11.4213C118.423 11.4213 113.596 10.885 111.719 15.1751Z" fill="#838345"/>
<path d="M98.0454 232.197L103.944 249.625L125.931 250.966L121.909 230.32L98.0454 232.197Z" fill="#FF7848"/>
<path d="M196.716 190.637L216.557 198.145L217.361 219.059L189.208 215.037L196.716 190.637Z" fill="#FF7848"/>
<path d="M213.991 198.037L204.2 215.571C203.676 216.509 204.202 217.687 205.25 217.924L210.149 219.03C210.909 219.202 211.437 219.894 211.401 220.672L209.072 272.163C208.996 273.835 211.207 274.497 212.062 273.057L238.951 227.769C239.202 227.348 239.246 226.836 239.072 226.377L237.783 222.978C237.273 221.635 238.645 220.348 239.953 220.943L240.972 221.406C241.724 221.748 242.613 221.464 243.028 220.75L248.062 212.091C248.556 211.242 248.18 210.152 247.267 209.788L215.991 197.327C215.241 197.028 214.385 197.332 213.991 198.037Z" fill="#0F1100"/>
<path d="M145.8 101.083H108.988C105.943 101.083 103.509 103.617 103.63 106.66L106.516 179.05C106.585 180.77 107.475 182.353 108.91 183.305L181.636 231.547C184.448 233.412 188.264 232.248 189.555 229.13L203.658 195.081C204.838 192.233 203.379 188.979 200.468 187.965L144.729 168.547C142.24 167.68 140.751 165.133 141.215 162.539L151.079 107.39C151.667 104.103 149.139 101.083 145.8 101.083Z" fill="#ECBC02"/>
<path fill-rule="evenodd" clip-rule="evenodd" d="M147.708 20.2398C147.497 19.7731 147.55 19.2302 147.832 18.8028C151.177 13.7356 150.682 7.51178 146.727 4.90158C142.772 2.29138 136.855 4.2832 133.51 9.35043C130.166 14.4177 130.661 20.6415 134.616 23.2517C135.87 24.0797 137.323 24.4446 138.827 24.3951C140.197 24.3501 141.111 26.2718 140.181 27.2776C139.34 28.1865 140.215 29.4495 141.438 29.6398L147.049 30.5126C148.709 30.7709 150.2 29.4512 149.945 27.7905C149.487 24.8096 148.595 22.2062 147.708 20.2398Z" fill="#FF7848"/>
<path d="M123.393 235.273L75.2 240.581C71.7887 240.957 68.9074 238.076 69.2826 234.664L77.3075 161.711C77.3684 161.157 77.5153 160.616 77.7428 160.108L103.329 102.915C104.192 100.985 106.109 99.7428 108.224 99.7428H134.752C138.585 99.7428 141.181 103.649 139.696 107.183L114.541 167.042C114.101 168.088 114.005 169.246 114.265 170.35L128.025 228.713C128.764 231.847 126.594 234.921 123.393 235.273Z" fill="#F9C706"/>
<path d="M124.55 246.453L103.529 247.138C102.421 247.174 101.681 248.293 102.081 249.327L103.96 254.181C104.256 254.946 103.93 255.81 103.203 256.189L58.8283 279.301C57.3354 280.078 57.8882 282.336 59.5715 282.336H112.798C113.301 282.336 113.775 282.101 114.079 281.701L115.801 279.435C116.734 278.209 118.691 278.868 118.691 280.409V280.728C118.691 281.616 119.411 282.336 120.3 282.336H130.697C131.703 282.336 132.463 281.422 132.278 280.433L126.184 247.765C126.038 246.984 125.344 246.427 124.55 246.453Z" fill="#0F1100"/>
<path d="M153.502 102.342C171.673 45.7352 160.053 31.93 152.892 28.6116C141.899 23.5172 129.297 25.9304 111.601 44.1629C93.9044 62.3955 71.65 79.5555 78.3531 92.9618C82.5832 101.422 92.6529 101.318 100.007 99.4925C101.873 99.0295 103.7 100.986 102.899 102.734C102.58 103.43 103.089 104.223 103.855 104.223H150.948C152.108 104.223 153.147 103.446 153.502 102.342Z" fill="#F3C5C7"/>
<path d="M147.917 20.1094C138.056 15.8194 140.722 3.21749 141.75 1.07248L150.598 7.5075V19.305L147.917 20.1094Z" fill="#838345"/>
<path d="M96.3125 80.3446C99.6336 79.8202 97.6014 72.9693 95.3811 67.7425C94.5857 65.8703 95.1381 63.6635 96.808 62.5018C98.6236 61.2387 101.111 61.6511 102.609 63.278C105.497 66.413 109.696 70.0627 113.473 70.6921C119.581 71.7101 108.778 55.5753 101.703 48.6598C100.996 47.9688 100.082 47.5296 99.102 47.4034C86.8266 45.8233 85.5367 53.4161 84.2468 57.2858C82.9062 61.3077 91.2181 81.149 96.3125 80.3446Z" fill="#242523"/>
<path d="M73.9512 50.3621C73.3978 40.6139 79.0828 42.0475 82.2264 44.1098C82.3851 44.2139 82.5848 44.2328 82.7573 44.1536C85.4377 42.9222 90.2971 40.6225 90.2971 40.3462C90.2971 39.9885 90.2971 37.8422 92.0738 34.9805C96.338 29.2571 102.734 39.273 103.09 42.4924C103.374 45.0679 100.128 44.281 98.4701 43.5656C99.8915 44.281 101.668 47.5004 102.379 49.2889C103.8 53.8677 103.445 62.1666 103.09 65.7437C102.962 67.0314 100.994 69.4445 97.7594 67.89C89.8791 63.9236 85.1631 58.0602 83.1957 54.6252C82.9412 54.1808 82.1856 54.2556 81.9778 54.7237C79.7797 59.676 74.6567 55.5847 73.9512 50.3621Z" fill="#0B0C0B" stroke="#0F1100" stroke-width="0.536252"/>
<ellipse cx="100.328" cy="65.9468" rx="1.87688" ry="1.29925" transform="rotate(-34.4369 100.328 65.9468)" fill="#F5EDE2"/>
<path d="M88.9287 56.0383C88.9287 54.8764 89.3041 52.5527 90.8056 52.5527" stroke="#F5EDE2" stroke-width="0.536252" stroke-linecap="round"/>
<path d="M100.157 51.4013C99.3837 50.5338 97.5576 49.0485 96.4366 50.0474" stroke="#F5EDE2" stroke-width="0.536252" stroke-linecap="round"/>
<circle cx="91.342" cy="55.7701" r="0.804377" fill="#F5EDE2"/>
<circle cx="0.804377" cy="0.804377" r="0.804377" transform="matrix(-0.746631 0.665239 0.665239 0.746631 98.2417 51.6708)" fill="#F5EDE2"/>
<path d="M135.851 20.3775C136.745 20.5562 139.015 20.5383 140.945 19.0368" stroke="#0F1100" stroke-width="0.536252" stroke-linecap="round"/>
<line x1="1.5" y1="283.5" x2="300.5" y2="283.5" stroke="#0F1100" stroke-width="3" stroke-linecap="round"/>
</svg>
