<svg width="156" height="28" viewBox="0 0 156 28" fill="none" xmlns="http://www.w3.org/2000/svg">
<path d="M9.75521 13.35C10.9312 13.35 11.8272 13.084 12.4432 12.552C13.0872 11.992 13.4092 11.152 13.4092 10.032C13.4092 8.968 13.0732 8.156 12.4012 7.596C11.7572 7.008 10.8052 6.714 9.54521 6.714C9.09721 6.714 8.71921 6.728 8.41121 6.756C8.13121 6.756 7.83721 6.784 7.52921 6.84V13.35H9.75521ZM7.57121 26.832C7.26321 26.916 6.77321 27 6.10121 27.084C5.45721 27.168 4.81321 27.21 4.16921 27.21C3.52521 27.21 2.95121 27.154 2.44721 27.042C1.97121 26.958 1.56521 26.79 1.22921 26.538C0.893211 26.286 0.641211 25.936 0.473211 25.488C0.305211 25.04 0.221211 24.452 0.221211 23.724V3.942C0.221211 3.354 0.375211 2.906 0.683211 2.598C1.01921 2.262 1.46721 1.996 2.02721 1.8C2.97921 1.464 4.05721 1.226 5.26121 1.086C6.49321 0.917999 7.72521 0.833999 8.95721 0.833999C12.8212 0.833999 15.7752 1.66 17.8192 3.312C19.8632 4.964 20.8852 7.204 20.8852 10.032C20.8852 11.404 20.6612 12.65 20.2132 13.77C19.7932 14.862 19.1492 15.814 18.2812 16.626C17.4412 17.41 16.3632 18.026 15.0472 18.474C13.7592 18.894 12.2612 19.104 10.5532 19.104H7.57121V26.832ZM24.6255 5.454C24.6255 4.25 24.9755 3.298 25.6755 2.598C26.3755 1.898 27.3275 1.548 28.5315 1.548H42.3915C42.5875 1.856 42.7555 2.262 42.8955 2.766C43.0635 3.27 43.1475 3.802 43.1475 4.362C43.1475 5.426 42.9095 6.182 42.4335 6.63C41.9855 7.078 41.3835 7.302 40.6275 7.302H31.7655V11.208H41.2155C41.4115 11.516 41.5795 11.922 41.7195 12.426C41.8875 12.902 41.9715 13.42 41.9715 13.98C41.9715 15.044 41.7475 15.8 41.2995 16.248C40.8515 16.696 40.2495 16.92 39.4935 16.92H31.7655V21.33H42.5595C42.7555 21.638 42.9235 22.044 43.0635 22.548C43.2315 23.052 43.3155 23.584 43.3155 24.144C43.3155 25.208 43.0775 25.978 42.6015 26.454C42.1535 26.902 41.5515 27.126 40.7955 27.126H28.5315C27.3275 27.126 26.3755 26.776 25.6755 26.076C24.9755 25.376 24.6255 24.424 24.6255 23.22V5.454ZM46.4593 7.428C46.2633 7.12 46.0813 6.7 45.9133 6.168C45.7453 5.636 45.6613 5.076 45.6613 4.488C45.6613 3.396 45.8993 2.612 46.3753 2.136C46.8793 1.66 47.5233 1.422 48.3073 1.422H66.6193C66.8153 1.73 66.9973 2.15 67.1653 2.682C67.3333 3.214 67.4173 3.774 67.4173 4.362C67.4173 5.454 67.1653 6.238 66.6613 6.714C66.1853 7.19 65.5553 7.428 64.7713 7.428H60.1093V26.832C59.8013 26.916 59.3113 27 58.6393 27.084C57.9953 27.168 57.3513 27.21 56.7073 27.21C56.0633 27.21 55.4893 27.154 54.9853 27.042C54.5093 26.958 54.1033 26.79 53.7673 26.538C53.4313 26.286 53.1793 25.936 53.0113 25.488C52.8433 25.04 52.7593 24.452 52.7593 23.724V7.428H46.4593ZM87.7509 20.742C87.3869 21.05 86.9109 21.302 86.3229 21.498C85.7629 21.666 85.1049 21.75 84.3489 21.75C83.3409 21.75 82.5009 21.624 81.8289 21.372C81.1849 21.12 80.7649 20.686 80.5689 20.07C79.7849 17.606 79.1409 15.618 78.6369 14.106C78.1329 12.566 77.7409 11.222 77.4609 10.074H77.2509C77.1669 11.726 77.0969 13.238 77.0409 14.61C77.0129 15.954 76.9849 17.27 76.9569 18.558C76.9569 19.846 76.9289 21.148 76.8729 22.464C76.8449 23.78 76.7889 25.236 76.7049 26.832C76.3409 26.972 75.8649 27.084 75.2769 27.168C74.6889 27.28 74.1009 27.336 73.5129 27.336C72.2809 27.336 71.3149 27.14 70.6149 26.748C69.9429 26.356 69.6069 25.642 69.6069 24.606L70.8249 3.186C71.0489 2.822 71.5389 2.43 72.2949 2.01C73.0509 1.59 74.1149 1.38 75.4869 1.38C76.9709 1.38 78.1329 1.618 78.9729 2.094C79.8129 2.542 80.4289 3.284 80.8209 4.32C81.0729 4.992 81.3389 5.762 81.6189 6.63C81.9269 7.498 82.2209 8.394 82.5009 9.318C82.8089 10.242 83.1029 11.166 83.3829 12.09C83.6629 12.986 83.9149 13.798 84.1389 14.526H84.3489C85.0209 12.174 85.6929 9.906 86.3649 7.722C87.0369 5.51 87.6529 3.662 88.2129 2.178C88.6329 1.954 89.1649 1.772 89.8089 1.632C90.4809 1.464 91.2229 1.38 92.0349 1.38C93.4069 1.38 94.5269 1.59 95.3949 2.01C96.2629 2.402 96.7669 2.976 96.9069 3.732C97.0189 4.292 97.1309 5.16 97.2429 6.336C97.3829 7.484 97.5229 8.786 97.6629 10.242C97.8029 11.698 97.9429 13.238 98.0829 14.862C98.2229 16.486 98.3489 18.054 98.4609 19.566C98.6009 21.05 98.7129 22.422 98.7969 23.682C98.8809 24.914 98.9369 25.866 98.9649 26.538C98.4889 26.818 97.9849 27.014 97.4529 27.126C96.9489 27.266 96.2909 27.336 95.4789 27.336C94.4149 27.336 93.5189 27.154 92.7909 26.79C92.0629 26.426 91.6709 25.712 91.6149 24.648C91.4469 21.596 91.3349 18.852 91.2789 16.416C91.2509 13.98 91.1949 11.936 91.1109 10.284H90.9009C90.6209 11.376 90.2149 12.748 89.6829 14.4C89.1509 16.052 88.5069 18.166 87.7509 20.742ZM110.972 26.832C110.664 26.916 110.174 27 109.502 27.084C108.858 27.168 108.214 27.21 107.57 27.21C106.926 27.21 106.352 27.154 105.848 27.042C105.372 26.958 104.966 26.79 104.63 26.538C104.294 26.286 104.042 25.936 103.874 25.488C103.706 25.04 103.622 24.452 103.622 23.724V1.548C103.93 1.492 104.42 1.422 105.092 1.338C105.764 1.226 106.408 1.17 107.024 1.17C107.668 1.17 108.228 1.226 108.704 1.338C109.208 1.422 109.628 1.59 109.964 1.842C110.3 2.094 110.552 2.444 110.72 2.892C110.888 3.34 110.972 3.928 110.972 4.656V26.832ZM120.324 27.126C119.12 27.126 118.168 26.776 117.468 26.076C116.768 25.376 116.418 24.424 116.418 23.22V1.506C116.726 1.45 117.216 1.38 117.888 1.296C118.56 1.184 119.204 1.128 119.82 1.128C120.464 1.128 121.024 1.184 121.5 1.296C122.004 1.38 122.424 1.548 122.76 1.8C123.096 2.052 123.348 2.402 123.516 2.85C123.684 3.298 123.768 3.886 123.768 4.614V21.204H133.386C133.582 21.512 133.764 21.932 133.932 22.464C134.1 22.968 134.184 23.5 134.184 24.06C134.184 25.18 133.946 25.978 133.47 26.454C132.994 26.902 132.364 27.126 131.58 27.126H120.324ZM148.478 26.832C148.17 26.916 147.694 27 147.05 27.084C146.406 27.168 145.776 27.21 145.16 27.21C143.872 27.21 142.906 27 142.262 26.58C141.618 26.132 141.296 25.208 141.296 23.808V18.138C140.596 17.102 139.84 15.954 139.028 14.694C138.216 13.434 137.418 12.146 136.634 10.83C135.85 9.514 135.122 8.226 134.45 6.966C133.778 5.678 133.232 4.502 132.812 3.438C133.176 2.934 133.666 2.472 134.282 2.052C134.926 1.632 135.71 1.422 136.634 1.422C137.726 1.422 138.608 1.646 139.28 2.094C139.98 2.542 140.638 3.382 141.254 4.614L144.74 11.628H144.992C145.384 10.76 145.72 9.976 146 9.276C146.308 8.548 146.602 7.834 146.882 7.134C147.162 6.406 147.456 5.664 147.764 4.908C148.072 4.124 148.422 3.228 148.814 2.22C149.318 1.968 149.878 1.772 150.494 1.632C151.11 1.492 151.698 1.422 152.258 1.422C153.238 1.422 154.064 1.688 154.736 2.22C155.436 2.724 155.786 3.494 155.786 4.53C155.786 4.866 155.716 5.272 155.576 5.748C155.436 6.224 155.114 6.952 154.61 7.932C154.106 8.884 153.364 10.186 152.384 11.838C151.432 13.49 150.13 15.646 148.478 18.306V26.832Z" fill="#FE735C"/>
</svg>
