<svg width="302" height="242" viewBox="0 0 302 242" fill="none" xmlns="http://www.w3.org/2000/svg">
<line x1="1.5" y1="219.5" x2="300.5" y2="219.5" stroke="black" stroke-width="3" stroke-linecap="round"/>
<path d="M83.4454 123.727L204.389 107.536C210.515 94.7016 200.832 76.1415 146.289 49.486C102.654 28.1616 66.5818 50.7365 54 64.6895L83.4454 123.727Z" fill="white"/>
<path d="M130.833 241.727C117.546 238.107 104.075 215.3 99 204.35L128.856 181.727L151 210.054C147.375 213.333 139.493 220.835 136.962 224.612C133.798 229.333 138.346 241.727 130.833 241.727Z" fill="#D6A34E"/>
<path d="M146.124 223.727C137.885 221.187 123.942 197.144 118 185.439L170.485 125.727L220 145.168C203.997 186.748 164.082 214.866 146.124 223.727Z" fill="#513683"/>
<path fill-rule="evenodd" clip-rule="evenodd" d="M100.561 1.40759C96.7466 2.8586 93.035 5.74605 90.2345 9.79868C84.3061 18.3778 84.706 28.9299 91.1276 33.3674C96.3357 36.9663 103.905 35.4379 109.743 30.155C115.58 35.4378 123.15 36.9662 128.358 33.3673C134.779 28.9298 135.179 18.3778 129.251 9.7986C122.768 0.417114 107.81 -1.8622 100.561 1.40759Z" fill="#2E3434"/>
<path fill-rule="evenodd" clip-rule="evenodd" d="M123.115 24.999C122.159 32.8547 116.471 38.8904 109.596 38.8904C102.721 38.8904 97.0318 32.8547 96.0765 24.9989C95.966 25.0209 95.8527 25.0323 95.7373 25.0323C94.5346 25.0323 93.5596 23.7914 93.5596 22.2607C93.5596 20.7299 94.5346 19.489 95.7373 19.489C95.8909 19.489 96.0409 19.5093 96.1856 19.5478C97.406 12.0692 102.946 6.42261 109.596 6.42261C116.245 6.42261 121.785 12.0691 123.006 19.5477C123.15 19.5092 123.3 19.489 123.453 19.489C124.656 19.489 125.631 20.7299 125.631 22.2607C125.631 23.7914 124.656 25.0323 123.453 25.0323C123.338 25.0323 123.225 25.0209 123.115 24.999Z" fill="#FF7848"/>
<path fill-rule="evenodd" clip-rule="evenodd" d="M93.2649 17.3767C95.1352 21.1169 100.215 21.6767 104.61 18.627C105.408 18.0735 106.128 17.4392 106.762 16.7493C108.098 15.2942 112.175 14.8815 113.651 16.1953C114.195 16.6797 114.779 17.141 115.398 17.5708C120.3 20.9719 125.58 21.117 127.191 17.8949C128.803 14.6727 126.135 9.30343 121.233 5.9023C116.33 2.50116 111.05 2.35608 109.439 5.57825C109.316 5.8239 108.926 5.85903 108.771 5.63261C106.644 2.53423 101.943 2.23434 97.8376 5.08239C93.442 8.13209 91.3947 13.6364 93.2649 17.3767Z" fill="#2E3434"/>
<path d="M216.785 224.121C206.61 220.557 200.022 204.412 198 196.785L249.072 175.727C250.833 182.004 254.747 187.471 261.595 188.483C268.444 189.496 273.14 188.281 270.01 197.798C266.879 207.314 229.504 228.576 216.785 224.121Z" fill="#F8C268"/>
<rect x="106" y="33.7266" width="7" height="12" rx="3.5" fill="#FF7848"/>
<path d="M159.504 35.1821C156.028 34.0795 154.369 34.7227 153.974 35.1821C155.159 29.9317 155.831 19.7064 149.036 20.809C142.242 21.9116 144.23 32.0319 146.074 36.9542C117 49.2403 119.081 56.1184 123.755 58.0216C121.859 61.802 134.947 61.9595 141.728 61.5657V64.1253C135.408 67.9056 137.12 73.3136 138.766 75.545C130.233 80.743 134.684 103.832 137.976 114.727L175.502 113.742C176.029 113.742 177.951 112.364 181.428 106.851C185.773 99.9597 163.849 45.2237 167.01 37.7418C170.17 30.2599 175.108 28.0941 174.12 26.322C165.903 14.8235 160.953 27.4377 159.504 35.1821Z" fill="#F66061"/>
<path d="M261 173.594C226.469 197.564 196.32 204.748 185.562 205.343L166.356 158.91C136.853 196.215 94.877 223.003 59.2368 210.7C30.7246 200.858 40.0967 161.622 48.3467 143.234C60.2928 142.573 96.7778 133.551 147.149 102.755C197.521 71.9586 244.038 137.149 261 173.594Z" fill="#6A509A"/>
<path d="M136.975 77.0034C134.223 73.2028 126.385 80.6985 122.809 84.9214L122 86.505L138.797 103.727C162.11 85.5152 161.597 77.3993 158.427 75.6178C159.398 72.2922 157.347 71.4608 156.2 71.4608C155.391 69.0855 152.221 69.8113 150.737 70.4711C148.47 67.6207 140.618 73.6383 136.975 77.0034Z" fill="#FF7848"/>
<path d="M148 111.291L116.196 76.1132L81.4281 104.374C83.667 81.1197 81.5862 40.4221 55.3525 63.6629C22.5605 92.7138 22.5605 143.503 57.328 155.163C85.142 164.491 129.365 129.801 148 111.291Z" fill="white"/>
<path d="M162.538 79.9204C162.387 77.0473 165.885 78.0582 167.654 78.9228C166.138 66.9514 184.325 83.5118 185.841 92.2909C187.053 99.3141 181.041 99.2077 177.884 98.2766C163.789 92.69 161.402 88.766 161.97 87.5023C159.394 85.4273 159.886 83.9774 160.455 83.5118C159.242 80.7983 161.339 79.9869 162.538 79.9204Z" fill="#FF7848"/>
<path d="M105 31.7266C106.395 30.9719 110.149 29.9155 114 31.7266" stroke="black" stroke-width="2" stroke-linecap="round"/>
<ellipse cx="125.829" cy="54.2448" rx="3.76151" ry="2.77164" transform="rotate(-8.09587 125.829 54.2448)" fill="#F89690"/>
<ellipse cx="147.5" cy="45.7266" rx="1.5" ry="2" fill="white"/>
<ellipse cx="140" cy="45.2266" rx="2" ry="1.5" fill="white"/>
</svg>
